<?xml version="1.0" encoding="UTF-8"?>
<svg width="130px" height="95px" viewBox="0 0 130 95" version="1.1" xmlns="http://www.w3.org/2000/svg" xmlns:xlink="http://www.w3.org/1999/xlink">
    <!-- Generator: Sketch 56.3 (81716) - https://sketch.com -->
    <title>brand-selector/hamm</title>
    <desc>Created with Sketch.</desc>
    <defs>
        <polygon id="path-1" points="0.1518 0.5423 15.6098 0.5423 15.6098 16 0.1518 16"></polygon>
        <polygon id="path-3" points="0.203081703 0.2376 26.082 0.2376 26.082 10.7766 0.203081703 10.7766"></polygon>
    </defs>
    <g id="brand-selector/hamm" stroke="none" stroke-width="1" fill="none" fill-rule="evenodd">
        <g id="Group-25" transform="translate(36.000000, 61.000000)">
            <path d="M24.1161,22.2597 L24.1161,15.8587 L21.3291,7.9657 C21.2751,7.8117 21.1151,7.2867 20.9301,7.2867 C20.2951,7.2867 19.6921,7.3257 19.0671,7.4037 C17.2221,7.6347 15.2091,8.0617 13.3301,8.5617 C11.6311,9.0137 9.9841,9.5407 8.3461,10.1937 C5.8911,11.1717 3.7721,12.3147 2.1581,13.5647 C2.1521,13.5707 1.3071,14.3947 1.0761,15.9287 C0.5121,16.3027 0.4341,16.6607 0.4331,16.6647 L0.0141,18.3147 L0.0001,18.3187 L0.0001,19.3417 L3.2251,21.7347 L4.2551,22.2597 L9.5611,22.2597 C9.4051,21.6777 9.3221,21.0657 9.3221,20.4347 C9.3221,18.4887 10.1111,16.7257 11.3871,15.4507 C12.6621,14.1757 14.4241,13.3857 16.3701,13.3857 C18.3171,13.3857 20.0791,14.1757 21.3551,15.4507 C22.6301,16.7257 23.4191,18.4887 23.4191,20.4347 C23.4191,21.0657 23.3361,21.6777 23.1801,22.2597 L24.1161,22.2597 Z" id="Fill-1" fill="#EE7C00"></path>
            <g id="Group-5" transform="translate(9.000000, 12.163700)">
                <mask id="mask-2" fill="white">
                    <use xlink:href="#path-1"></use>
                </mask>
                <g id="Clip-4"></g>
                <path d="M7.8808,0.5423 C9.9368,0.5423 11.8928,1.3523 13.3458,2.8063 C14.7998,4.2593 15.6098,6.2143 15.6098,8.2713 C15.6098,10.3273 14.7998,12.2823 13.3458,13.7363 C11.8928,15.1893 9.9368,16.0003 7.8808,16.0003 C5.8248,16.0003 3.8698,15.1893 2.4158,13.7363 C0.9628,12.2823 0.1518,10.3273 0.1518,8.2713 C0.1518,6.2153 0.9628,4.2593 2.4158,2.8063 C3.8698,1.3523 5.8248,0.5423 7.8808,0.5423" id="Fill-3" fill="#FFFFFF" mask="url(#mask-2)"></path>
            </g>
            <path d="M16.8808,13.3862 C18.8268,13.3862 20.5898,14.1752 21.8648,15.4502 C23.1408,16.7262 23.9298,18.4882 23.9298,20.4342 C23.9298,22.3812 23.1408,24.1432 21.8648,25.4192 C20.5898,26.6942 18.8268,27.4832 16.8808,27.4832 C14.9348,27.4832 13.1728,26.6942 11.8968,25.4192 C10.6218,24.1432 9.8328,22.3812 9.8328,20.4342 C9.8328,18.4882 10.6218,16.7262 11.8968,15.4502 C13.1728,14.1752 14.9348,13.3862 16.8808,13.3862" id="Fill-6" fill="#FFFFFF"></path>
            <path d="M35.7255,9.998 C36.4565,10.264 37.6055,10.715 38.4915,11.137 L35.9685,12.295" id="Stroke-8" stroke="#787A7C" stroke-width="0.425" stroke-linejoin="round"></path>
            <path d="M34.6703,3.5508 C35.1843,5.1548 35.7583,7.1228 35.9973,8.5818 C36.2353,10.0428 36.3843,11.4148 36.4743,12.4208 C36.5543,13.3198 36.5863,13.9258 36.5923,14.0458 L33.3973,16.0288 L32.1143,16.0288 L32.1143,22.2598 L24.6113,22.2598 L24.6113,15.8588 L21.6333,7.4688 C21.5713,7.0968 21.6003,6.7138 21.6573,6.3438 C21.6573,6.3408 21.8913,4.9298 22.1453,3.4738 L22.6603,0.7048 C22.7383,0.2858 22.8883,-0.0242 23.4383,0.0018 L33.2583,0.4668 C33.4753,0.4668 33.6453,0.5548 33.7153,0.7498 C34.0533,1.6758 34.3693,2.6118 34.6703,3.5508 L34.6703,3.5508 Z M24.4243,1.5938 C24.4063,1.5938 24.3913,1.6078 24.3873,1.6248 L23.5423,6.0698 C23.5423,6.0718 23.3963,6.6958 23.3963,7.0018 C23.3963,7.3078 23.5113,7.5698 23.5113,7.5708 L25.7083,13.6958 C25.8383,14.0578 26.2173,14.3008 26.5703,14.3008 C28.2123,14.3008 29.8553,14.3008 31.4973,14.3008 C31.5043,14.3008 31.5103,14.3008 31.5183,14.2978 L35.8193,12.3138 C35.8333,12.3078 35.8423,12.2928 35.8413756,12.2768 C35.7273,11.0368 35.5763,9.7978 35.3753,8.5698 C35.0063,6.3128 34.1623,3.7908 33.4083,1.6198 C33.4023,1.6048 33.3883,1.5938 33.3723,1.5938 L24.4243,1.5938 Z" id="Fill-10" fill="#787A7C"></path>
            <path d="M35.7641,10.0503 C29.2411,8.0543 27.3341,8.1123 23.4381,7.9333 M28.5851,8.2793 L28.5851,1.5253" id="Stroke-12" stroke="#787A7C" stroke-width="0.425" stroke-linejoin="round"></path>
            <path d="M45.6742,12.2676 C47.7772,12.2676 49.6802,13.1206 51.0572,14.4966 C52.4352,15.8746 53.2872,17.7786 53.2872,19.8806 C53.2872,21.9826 52.4352,23.8866 51.0572,25.2636 C49.6802,26.6416 47.7762,27.4946 45.6742,27.4946 C43.5722,27.4946 41.6692,26.6416 40.2912,25.2636 C38.9132,23.8866 38.0612,21.9826 38.0612,19.8806 C38.0612,17.7786 38.9132,15.8746 40.2912,14.4976 C41.6692,13.1206 43.5722,12.2676 45.6742,12.2676 M50.4562,15.0986 C49.2332,13.8746 47.5422,13.1186 45.6742,13.1186 C43.8072,13.1186 42.1162,13.8746 40.8922,15.0986 C39.6692,16.3226 38.9112,18.0136 38.9112,19.8806 C38.9112,21.7476 39.6692,23.4386 40.8922,24.6626 C42.1162,25.8866 43.8072,26.6436 45.6742,26.6436 C47.5422,26.6436 49.2332,25.8866 50.4562,24.6626 C51.6802,23.4386 52.4372,21.7476 52.4372,19.8806 C52.4372,18.0136 51.6802,16.3226 50.4562,15.0986" id="Fill-14" fill="#787A7C"></path>
            <g id="Group-18" transform="translate(32.000000, 12.163700)">
                <mask id="mask-4" fill="white">
                    <use xlink:href="#path-3"></use>
                </mask>
                <g id="Clip-17"></g>
                <path d="M0.2045,9.5096 L0.2045,6.0936 L0.2055,6.0706 C0.2955,4.7986 1.7785,4.0426 2.9275,4.3086 L8.9265,5.6986 C8.9545,5.7056 8.9895,5.7066 9.0185,5.7066 C9.1395,5.7066 9.2785,5.6756 9.3885,5.6276 C9.4175,5.6146 9.4575,5.5956 9.4825,5.5766 L15.8835,0.6286 C15.9065,0.6106 15.9295,0.5946 15.9535,0.5786 L15.9605,0.5726 L15.9815,0.5596 C16.2995,0.3496 16.7235,0.2376 17.1025,0.2376 C17.2445,0.2376 17.3865,0.2526 17.5225,0.2876 C19.9295,0.9106 22.3355,1.5326 24.7425,2.1556 C25.3295,2.3066 25.8135,2.8686 25.8755,3.4726 L26.0755,5.4006 C26.1395,6.0216 25.7515,6.6656 25.1725,6.8996 L16.2715,10.4996 C15.8695,10.6616 15.2785,10.7766 14.8445,10.7766 L1.4135,10.7766 C0.7185,10.7766 0.1715,10.1996 0.2045,9.5096" id="Fill-16" fill="#FFFFFF" mask="url(#mask-4)"></path>
            </g>
            <path d="M57.3983,17.6343 L57.1993,15.7063 C57.1663,15.3853 56.8843,15.0583 56.5713,14.9773 C54.1653,14.3553 51.7583,13.7333 49.3523,13.1113 C49.2783,13.0913 49.1953,13.0813 49.1033,13.0813 C48.8383,13.0813 48.5473,13.1653 48.3563,13.2913 C48.3553,13.2923 48.3543,13.2943 48.3533,13.2943 L48.3343,13.3073 C48.3243,13.3133 48.3153,13.3193 48.3063,13.3253 L48.2063,13.4033 L41.8983,18.2793 C41.8323,18.3303 41.7503,18.3763 41.6603,18.4153 C41.4663,18.4993 41.2343,18.5513 41.0183,18.5513 C40.9293,18.5513 40.8463,18.5423 40.7733,18.5253 L34.7733,17.1353 C34.0543,16.9683 32.9443,17.4243 32.8843,18.2813 L32.8843,21.6933 C32.8623,22.0053 33.1003,22.2593 33.4133,22.2593 L38.6633,22.2593 L39.2003,22.2593 L46.8443,22.2593 C47.1793,22.2593 47.7063,22.1583 48.0163,22.0323 L56.9183,18.4333 C57.2153,18.3123 57.4313,17.9543 57.3983,17.6343" id="Fill-19" fill="#EE7C00"></path>
            <path d="M16.8808,13.3862 C18.8278,13.3862 20.5888,14.1752 21.8648,15.4502 C23.1408,16.7262 23.9298,18.4882 23.9298,20.4342 C23.9298,22.3812 23.1408,24.1432 21.8648,25.4192 C20.5888,26.6942 18.8278,27.4832 16.8808,27.4832 C14.9348,27.4832 13.1728,26.6942 11.8968,25.4192 C10.6218,24.1432 9.8328,22.3812 9.8328,20.4342 C9.8328,18.4882 10.6218,16.7262 11.8968,15.4512 C13.1728,14.1752 14.9348,13.3862 16.8808,13.3862" id="Fill-21" fill="#787A7C"></path>
            <path d="M17.9252,17.9087 C18.2622,18.0477 18.5642,18.2507 18.8142,18.5017 C19.0652,18.7517 19.2682,19.0537 19.4072,19.3897 C19.5412,19.7137 19.6152,20.0667 19.6152,20.4347 C19.6152,20.8037 19.5412,21.1567 19.4072,21.4797 C19.2682,21.8147 19.0652,22.1157 18.8142,22.3667 L18.8132,22.3677 C18.5622,22.6197 18.2602,22.8227 17.9252,22.9617 C17.6022,23.0957 17.2492,23.1687 16.8812,23.1687 C16.5122,23.1687 16.1592,23.0957 15.8372,22.9617 C15.5002,22.8217 15.1982,22.6187 14.9472,22.3677 L14.9472,22.3667 C14.6962,22.1157 14.4932,21.8147 14.3542,21.4797 C14.2202,21.1557 14.1472,20.8037 14.1472,20.4347 C14.1472,19.6797 14.4532,18.9957 14.9472,18.5017 C15.1982,18.2507 15.5002,18.0477 15.8372,17.9087 C16.1592,17.7747 16.5122,17.7007 16.8812,17.7007 C17.2492,17.7007 17.6022,17.7747 17.9252,17.9087" id="Fill-23" fill="#FFFFFF"></path>
        </g>
    </g>
</svg>