<svg id="Ebene_1" data-name="Ebene 1" xmlns="http://www.w3.org/2000/svg" viewBox="0 0 383.01732 90.70866"><defs><style>.cls-1{fill:#485358;}.cls-2{fill:#ec6608;}</style></defs><title>Zeichenfläche 2</title><path class="cls-1" d="M161.39191,72.88268V49.85238h-21.4844v23.0303h-13.312V17.77818h13.312v20.8555h21.4844V17.77818h13.3062v55.1045Z"/><path class="cls-1" d="M223.4295,72.88268l-4.28609-10.8106h-21.3272l-4.0468,10.8106h-14.4795l23.1152-55.1045H215.324l22.8946,55.1045Zm-14.79-40.3946-7.01079,18.918H215.4862Z"/><path class="cls-1" d="M292.7733,72.88268l.3164-38.9893h-.23729L278.5321,72.88268h-9.34769L255.2537,33.89338h-.2285l.3164,38.9893H242.8055V17.77818h18.9394L274.283,53.119h.3135l12.001-35.3408h19.251v55.1045Z"/><path class="cls-1" d="M367.10141,72.88268l.30859-38.9893h-.2207l-14.334,38.9893h-9.3398l-13.9209-38.9893h-.2344l.3105,38.9893H317.1356V17.77818H336.077L348.6258,53.119h.3115l11.99711-35.3408h19.251v55.1045Z"/><path class="cls-1" d="M85.86511,2.83478H9.32991a6.51761,6.51761,0,0,0-6.498,6.4961v72.0449a6.51674,6.51674,0,0,0,6.498,6.4981h76.5352a6.51517,6.51517,0,0,0,6.4961-6.4981V9.33088A6.516,6.516,0,0,0,85.86511,2.83478Zm1.5,76.9824a3.06753,3.06753,0,0,1-3.0547,3.0586H10.88651a3.06826,3.06826,0,0,1-3.0585-3.0586V10.88948a3.06832,3.06832,0,0,1,3.0585-3.0586h73.4239a3.06759,3.06759,0,0,1,3.0547,3.0586Z"/><path class="cls-2" d="M81.12781,12.44908H14.07111a1.53623,1.53623,0,0,0-1.5312,1.5312v62.75a1.53707,1.53707,0,0,0,1.5312,1.5293h67.0567a1.53462,1.53462,0,0,0,1.5254-1.5293v-62.75A1.53379,1.53379,0,0,0,81.12781,12.44908ZM77.325,71.81038a1.15156,1.15156,0,0,1-1.1484,1.1485H19.03211a1.15117,1.15117,0,0,1-1.1465-1.1485V18.94128a1.14912,1.14912,0,0,1,1.1465-1.1446h57.1445a1.14952,1.14952,0,0,1,1.1484,1.1446Z"/><polygon class="cls-1" points="43.182 35.423 37.516 44.97 30.713 28.723 22.174 28.723 36.062 61.987 43.205 61.987 46.775 35.423 43.182 35.423"/><polygon class="cls-1" points="52.012 35.423 57.68 44.97 64.48 28.723 73.019 28.723 59.133 61.987 51.988 61.987 48.42 35.423 52.012 35.423"/></svg>