<svg id="Ebene_1" data-name="Ebene 1" xmlns="http://www.w3.org/2000/svg" viewBox="0 0 561.31654 90.70866"><defs><style>.cls-1{fill:#485358;}.cls-2{fill:#004f9f;}</style></defs><title>Zeichenfläche 5</title><path class="cls-1" d="M160.52058,72.90518l-20.6533-25.3731H139.71v25.3731h-13.1191V17.79768H139.71v22.418h.2442l19.8632-22.418h16.8028l-23.9512,25.377,25.374,29.7305Z"/><path class="cls-1" d="M182.44048,72.90518V17.79768h13.5098v43.5137H217.461v11.5938Z"/><path class="cls-1" d="M222.18458,72.90518V17.79768h37.375v11.2051h-24.4218v10.4414h23.0927v10.6563h-23.0927v11.4453h25.832v11.3594Z"/><path class="cls-1" d="M269.07328,72.90518V17.79768h37.3799v11.2051h-24.4307v10.4414h23.0948v10.6563h-23.0948v11.4453h25.8477v11.3594Z"/><path class="cls-1" d="M366.378,72.90518l.3135-38.9922h-.2364l-14.4609,38.9922h-9.4189L328.52158,33.913h-.2374l.3135,38.9922h-12.6474V17.79768h19.1093l12.6651,35.3379h.3135l12.1074-35.3379h19.4199v55.1075Z"/><path class="cls-1" d="M427.87308,72.90518l-4.3144-10.8184h-21.5235l-4.084,10.8184h-14.6093l23.3252-55.1075h13.0351l23.0967,55.1075Zm-14.9219-40.3926-7.0683,18.9101h13.9765Z"/><path class="cls-1" d="M481.98438,72.90518l-22.3779-36.0371h-.2461l.3242,36.0371h-13.039V17.79768h15.3193l22.3018,35.961h.2314l-.3086-35.961h13.0391v55.1075Z"/><path class="cls-1" d="M543.251,72.90518l-22.3837-36.0371h-.2422l.3193,36.0371h-13.0332V17.79768h15.3154l22.3047,35.961h.2315l-.3116-35.961h13.0362v55.1075Z"/><path class="cls-1" d="M85.86235,2.83478H9.32716a6.51761,6.51761,0,0,0-6.498,6.4961v72.045a6.51672,6.51672,0,0,0,6.498,6.498H85.86235a6.51515,6.51515,0,0,0,6.4961-6.498V9.33088A6.516,6.516,0,0,0,85.86235,2.83478Zm1.5,76.9825a3.06759,3.06759,0,0,1-3.0547,3.0586H10.88386a3.06833,3.06833,0,0,1-3.05858-3.0586V10.88948a3.06833,3.06833,0,0,1,3.05858-3.0586H84.30765a3.06759,3.06759,0,0,1,3.0547,3.0586Z"/><path class="cls-2" d="M81.12505,12.44908H14.06836a1.53625,1.53625,0,0,0-1.5312,1.5313v62.75a1.53713,1.53713,0,0,0,1.5312,1.5293H81.12505a1.53469,1.53469,0,0,0,1.5254-1.5293v-62.75A1.53381,1.53381,0,0,0,81.12505,12.44908Zm-3.80277,59.3613a1.15159,1.15159,0,0,1-1.14843,1.1485H19.02936a1.15117,1.15117,0,0,1-1.1465-1.1485V18.94128a1.149,1.149,0,0,1,1.1465-1.1445H76.17385a1.14946,1.14946,0,0,1,1.14843,1.1445Z"/><polygon class="cls-1" points="43.179 35.423 37.513 44.97 30.71 28.723 22.171 28.723 36.06 61.987 43.202 61.987 46.772 35.423 43.179 35.423"/><polygon class="cls-1" points="52.009 35.423 57.677 44.97 64.478 28.723 73.017 28.723 59.13 61.987 51.985 61.987 48.417 35.423 52.009 35.423"/></svg>