<?xml version="1.0" encoding="UTF-8"?>
<svg width="130px" height="95px" viewBox="0 0 130 95" version="1.1" xmlns="http://www.w3.org/2000/svg" xmlns:xlink="http://www.w3.org/1999/xlink">
    <!-- Generator: Sketch 56.3 (81716) - https://sketch.com -->
    <title>brand-selector/kleemann</title>
    <desc>Created with Sketch.</desc>
    <defs>
        <polygon id="path-1" points="0 0.607 58.0128 0.607 58.0128 26.096 0 26.096"></polygon>
        <polygon id="path-3" points="0 29.393 113.463 29.393 113.463 1 0 1"></polygon>
    </defs>
    <g id="brand-selector/kleemann" stroke="none" stroke-width="1" fill="none" fill-rule="evenodd">
        <g id="Group-32" transform="translate(8.000000, 60.000000)">
            <path d="M88.1167,3.2278 C88.0027,3.3768 87.9597,3.5278 88.0157,3.6428 L88.4407,4.5098 L87.8687,4.3848 L87.8957,4.2648 L86.2477,3.9008 L88.1167,3.2278 Z M78.5617,6.6208 L79.4697,6.3408 L80.8127,9.2028 C80.8517,9.2868 80.9317,9.3368 81.0177,9.3428 L81.6717,10.7288 L82.5477,10.3078 L82.8277,10.9028 L83.7657,10.4518 L83.8967,10.7288 L88.1177,8.7058 L87.9847,8.4208 L88.9557,7.9548 L88.6717,7.3658 L89.4597,6.9878 L88.7837,5.5868 L87.9947,5.9618 L87.7417,5.4388 L86.7997,5.8828 L86.6727,5.6128 L82.4227,7.6068 L82.5547,7.8858 L81.6137,8.3298 L81.8727,8.8778 L81.2707,9.1648 C81.2787,9.1108 81.2717,9.0518 81.2507,9.0048 L79.9237,6.1778 L85.2257,4.2688 L87.7707,4.8318 L87.8017,4.6928 L88.5547,4.8578 L88.3957,5.2748 C88.3487,5.3978 88.4107,5.5378 88.5337,5.5838 C88.6577,5.6308 88.7967,5.5698 88.8437,5.4458 L88.9657,5.1258 C89.0107,5.1308 89.0587,5.1318 89.1087,5.1298 L89.2057,5.3268 C89.2157,5.3478 89.2317,5.3668 89.2507,5.3818 L89.0427,5.4838 L89.8387,7.1128 L91.3107,6.3928 L90.5137,4.7638 L90.3057,4.8658 C90.3057,4.8408 90.3007,4.8178 90.2897,4.7958 L90.1937,4.5988 C90.3367,4.4338 90.3947,4.2638 90.3327,4.1368 L89.6987,2.8398 C89.7037,2.8378 89.7277,2.8268 89.7297,2.8238 C89.8297,2.7658 89.8977,2.6578 89.8977,2.5338 C89.8977,2.4298 89.8497,2.3358 89.7757,2.2758 L88.8987,1.6958 C88.7487,1.5458 88.5417,1.4538 88.3127,1.4538 L77.6537,1.4538 C77.3307,1.4538 77.0677,1.7158 77.0677,2.0398 L78.5617,6.6208 Z M79.6467,5.0768 L79.6467,5.0638 L79.6477,5.0628 C79.6357,4.7198 79.5557,4.3818 79.4737,4.0338 L79.3257,3.4058 L79.9857,3.1698 L80.7897,3.2178 C80.8407,3.2208 80.8887,3.2088 80.9307,3.1858 L82.6467,3.5618 L82.6187,3.6928 L83.1577,3.8118 L79.6467,5.0768 Z M84.1777,3.4428 L82.7427,3.1248 L82.7147,3.2548 L81.0827,2.8978 C81.0797,2.8598 81.0687,2.8238 81.0517,2.7908 L82.3807,2.3168 L83.8397,2.3168 L83.9137,2.3168 C84.2417,2.3168 84.5077,2.5818 84.5077,2.9108 C84.5077,3.1368 84.3787,3.3418 84.1777,3.4428 L84.1777,3.4428 Z" id="Fill-1" fill="#6A6D6E"></path>
            <path d="M77.0063,11.6497 C72.0813,8.6977 67.1723,6.3347 61.6133,4.8457 L60.4713,5.8167 L61.6283,2.5787 C61.9003,1.8157 62.8273,1.1707 63.6363,1.1707 L76.3853,1.1707 C77.5363,1.1707 78.4763,2.1117 78.4763,3.2607 L78.4763,11.6457 C78.4763,12.0807 78.1213,12.4357 77.6863,12.4357 L77.0263,12.4357 L77.0063,11.6497 Z" id="Fill-3" fill="#FFFFFF"></path>
            <path d="M77.6865,12.0101 L77.4405,12.0101 C77.4855,12.0081 77.5215,11.9711 77.5215,11.9251 L77.5215,11.8561 C77.5215,11.6301 77.4365,11.4111 77.2545,11.3031 C72.1255,8.2261 67.2655,5.9081 61.6365,4.4121 C61.5525,4.3901 61.4675,4.4121 61.4065,4.4641 L62.0285,2.7221 C62.2405,2.1281 63.0065,1.5961 63.6365,1.5961 L76.3855,1.5961 C77.3015,1.5961 78.0515,2.3461 78.0515,3.2611 L78.0515,11.6461 C78.0515,11.8461 77.8865,12.0101 77.6865,12.0101" id="Fill-5" fill="#206FA7"></path>
            <path d="M13.0234,11.7005 L13.0204,11.6995 L12.6314,11.9715 C12.5934,11.9985 12.5694,12.0355 12.5614,12.0825 C12.5534,12.1295 12.5644,12.1715 12.5914,12.2105 L16.2574,17.4155 C16.3114,17.4915 16.4174,17.5105 16.4944,17.4565 L18.2954,16.1935 C18.3344,16.1665 18.3574,16.1295 18.3654,16.0825 C18.3734,16.0355 18.3634,15.9935 18.3354,15.9545 L17.4714,14.7495 L19.1524,14.5225 L21.3234,13.8495 C18.5934,13.0645 15.8264,12.3485 13.0234,11.7005" id="Fill-7" fill="#1D6598"></path>
            <polygon id="Fill-9" fill="#206FA7" points="38.4223 3.3753 34.4953 2.6343 34.4953 9.5373 37.3433 12.6583 41.0313 12.5943 41.7873 15.3953 44.2853 15.3953 44.2853 5.1603 44.2953 5.1603 44.2953 2.7023 39.0953 2.7023"></polygon>
            <path d="M78.0317,14.1556 L106.5247,1.4346 L110.9047,1.3776 L112.8877,1.3476 L113.4627,2.7646 L112.1907,4.2676 L111.9017,4.4416 L111.0927,4.5286 L110.8667,4.6256 L110.9187,4.7306 L111.1787,5.7136 L105.8597,8.1126 L105.2367,6.7106 L100.4257,8.4596 L100.2567,8.1236 L77.7717,18.1546 L78.0317,14.1556 Z M111.1347,1.8946 L111.9447,3.7166 L112.8557,2.6776 L112.5157,1.8786 L111.1347,1.8946 Z" id="Fill-11" fill="#6A6D6E"></path>
            <g id="Group-15" transform="translate(0.000000, 0.393000)">
                <mask id="mask-2" fill="white">
                    <use xlink:href="#path-1"></use>
                </mask>
                <g id="Clip-14"></g>
                <path d="M42.1128,14.576 L55.8358,14.576 L58.0128,22.341 L52.2208,22.254 L34.6728,22.254 C33.1998,22.254 32.0068,23.447 32.0068,24.92 C32.0068,25.072 32.0198,25.223 32.0458,25.374 L32.1698,26.096 L25.1368,23.546 C24.5178,23.321 23.9928,22.737 23.8258,22.101 L21.7008,14.01 C16.1518,12.392 10.5138,11.086 4.8288,10.046 L4.6338,10.01 L0.4608,2.674 L0.0618,2.087 L-0.0002,1.278 L0.7818,0.672 L28.8098,0.607 L34.4098,2.297 L34.4098,8.432 L37.5278,11.838 L41.3558,11.77 L42.1128,14.576 Z M34.5438,13.54 L25.9778,13.54 C25.9458,13.54 25.9278,13.55 25.9088,13.575 C25.8898,13.601 25.8868,13.621 25.8968,13.651 L25.9028,13.666 L27.5828,20.411 C27.6818,20.807 28.0728,21.023 28.4628,21.023 L36.0868,21.023 C36.2248,21.023 36.3328,20.972 36.4188,20.863 C36.4978,20.763 36.5408,20.649 36.5058,20.523 L34.5438,13.54 Z" id="Fill-13" fill="#FFFFFF" mask="url(#mask-2)"></path>
            </g>
            <path d="M41.7876,15.3948 L41.0316,12.5938 L37.3436,12.6588 L33.9856,8.9908 L33.9856,3.0048 L28.7466,1.4248 L0.9276,1.4898 L0.4416,1.8668 L0.4776,2.3338 L0.8216,2.8418 L4.9056,10.0208 C10.7686,11.0938 16.4886,12.4318 22.0506,14.0618 L24.2376,22.3868 C24.3696,22.8878 24.7936,23.3618 25.2816,23.5388 L31.6266,25.8388 C31.5976,25.6678 31.5816,25.4928 31.5816,25.3128 C31.5816,23.6058 32.9656,22.2218 34.6726,22.2218 L52.2216,22.2218 L57.4506,22.2998 L55.5136,15.3948 L41.7876,15.3948 Z M34.8656,13.5068 L25.9776,13.5068 C25.8096,13.5068 25.6636,13.5828 25.5646,13.7188 C25.4656,13.8558 25.4406,14.0168 25.4936,14.1768 L27.1696,20.9068 C27.3146,21.4858 27.8646,21.8408 28.4626,21.8408 L36.0866,21.8408 C36.3536,21.8408 36.5846,21.7308 36.7516,21.5208 C36.9176,21.3118 36.9876,21.0588 36.9156,20.8008 L34.8656,13.5068 Z" id="Fill-16" fill="#787A7C"></path>
            <path d="M56.351,18.6976 C56.201,18.8206 56.015,18.8876 55.813,18.8876 L45.711,18.8876 C44.702,18.8876 43.973,18.3436 43.716,17.3646 L43.401,16.1626 C43.359,16.0036 43.375,15.8406 43.445,15.6966 C43.317,15.6066 43.22,15.4726 43.178,15.3116 L41.574,9.1926 C41.345,8.3176 41.584,7.4166 41.829,6.5726 L42.637,3.7836 L42.64,3.7746 C43.013,2.6626 43.837,2.0696 45.002,2.0006 L45.02,1.9996 C50.376,1.9036 55.712,2.4836 60.91,3.7856 C61.066,3.8246 61.198,3.9136 61.291,4.0386 C61.429,3.9766 61.589,3.9596 61.746,4.0016 C67.474,5.5236 72.904,7.8906 77.984,10.9376 C78.305,11.1306 78.457,11.4916 78.457,11.8556 L78.457,11.9256 C78.457,12.0556 78.408,12.1756 78.328,12.2646 C78.409,12.3866 78.457,12.5336 78.457,12.6906 L78.457,17.2566 C78.457,17.7196 78.307,18.1256 78.051,18.5096 L78.043,18.5216 L76.09,21.0526 C75.858,21.3536 75.564,21.5716 75.209,21.7196 L65.693,25.5146 C65.388,25.6426 65.012,25.6176 64.712,25.4856 C64.328,25.3156 64.075,24.9866 64.002,24.5756 C63.538,22.8366 61.913,21.5886 60.111,21.5886 L57.753,21.5886 C57.558,21.5886 57.361,21.5186 57.204,21.4046 L57.085,21.3176 L56.351,18.6976 Z" id="Fill-18" fill="#FFFFFF"></path>
            <path d="M77.6919,12.3509 L58.6539,12.3509 C58.5739,12.3509 58.5049,12.3829 58.4549,12.4459 L56.0049,15.4969 C55.9519,15.5629 55.9359,15.6439 55.9589,15.7259 L57.4549,21.0619 C57.5509,21.1309 57.6629,21.1629 57.7539,21.1629 L60.1109,21.1629 C61.8499,21.1629 63.8469,22.3069 64.4179,24.4849 C64.5199,25.1219 65.1869,25.2659 65.5289,25.1219 L75.0509,21.3249 C75.3339,21.2059 75.5679,21.0349 75.7539,20.7929 L77.6969,18.2739 C77.9309,17.9219 78.0319,17.5989 78.0319,17.2559 L78.0319,12.6909 C78.0319,12.5029 77.8789,12.3509 77.6919,12.3509 M78.0319,11.9249 L78.0319,11.8559 C78.0319,11.6299 77.9459,11.4119 77.7649,11.3029 C72.6359,8.2259 67.2649,5.9089 61.6369,4.4129 C61.5079,4.3779 61.3759,4.4479 61.3309,4.5739 L58.8119,11.6699 C58.7829,11.7499 58.7949,11.8319 58.8439,11.9029 C58.8929,11.9719 58.9669,12.0099 59.0519,12.0099 L77.9469,12.0099 C77.9939,12.0099 78.0319,11.9719 78.0319,11.9249 M60.8069,4.1979 C55.7569,2.9329 50.5009,2.3279 45.0269,2.4239 C44.0169,2.4849 43.3549,2.9809 43.0439,3.9109 L42.2369,6.6909 C41.9979,7.5189 41.7869,8.3279 41.9849,9.0839 L43.5889,15.2049 C43.6189,15.3179 43.7189,15.3949 43.8359,15.3949 L55.5299,15.3949 C55.6099,15.3949 55.6789,15.3619 55.7289,15.2989 L58.2729,12.1309 C58.2919,12.1079 58.3039,12.0839 58.3149,12.0559 L60.9859,4.5309 C61.0109,4.4599 61.0049,4.3899 60.9699,4.3249 C60.9349,4.2589 60.8799,4.2149 60.8069,4.1979 M43.8129,16.0549 L44.1279,17.2559 C44.3309,18.0309 44.8769,18.4619 45.7119,18.4619 L55.8129,18.4619 C55.9509,18.4619 56.0689,18.4039 56.1519,18.2939 C56.2349,18.1849 56.2589,18.0549 56.2229,17.9219 L55.6609,15.9209 C55.6299,15.8089 55.5319,15.7349 55.4159,15.7349 L44.0589,15.7349 C43.9779,15.7349 43.9069,15.7689 43.8569,15.8329 C43.8069,15.8989 43.7919,15.9759 43.8129,16.0549" id="Fill-20" fill="#787A7C"></path>
            <path d="M77.5215,12.8606 L58.7755,12.8606 L56.4855,15.7146 L57.8705,20.6526 L60.1115,20.6526 C62.3445,20.6526 64.3455,22.1946 64.9115,24.3556 L64.9175,24.3796 L64.9215,24.4036 C64.9515,24.5906 65.1685,24.7196 65.3405,24.6486 L74.8545,20.8536 C75.0535,20.7706 75.2175,20.6536 75.3495,20.4816 L77.2825,17.9766 C77.4285,17.7536 77.5215,17.5266 77.5215,17.2566 L77.5215,12.8606 Z M77.0995,11.5006 C72.2785,8.6536 67.1415,6.4266 61.7325,4.9656 L59.4135,11.5006 L77.0995,11.5006 Z M60.4105,4.6256 C55.3815,3.3916 50.2245,2.8426 45.0475,2.9346 C44.2735,2.9836 43.7815,3.3236 43.5305,4.0626 L42.7275,6.8326 C42.5405,7.4776 42.3035,8.2856 42.4795,8.9556 L44.0335,14.8836 L55.4075,14.8836 L57.8475,11.8446 L60.4105,4.6256 Z M44.3895,16.2446 L44.6215,17.1276 C44.7695,17.6936 45.1275,17.9526 45.7115,17.9526 L55.7005,17.9526 L55.2225,16.2446 L44.3895,16.2446 Z" id="Fill-22" fill="#FFFFFF"></path>
            <mask id="mask-4" fill="white">
                <use xlink:href="#path-3"></use>
            </mask>
            <g id="Clip-25"></g>
            <polygon id="Fill-24" fill="#FFFFFF" mask="url(#mask-4)" points="29.034 21.842 34.495 21.842 34.495 2.325 29.034 2.325"></polygon>
            <polygon id="Fill-26" fill="#787A7C" mask="url(#mask-4)" points="29.544 21.331 33.985 21.331 33.985 2.835 29.544 2.835"></polygon>
            <path d="M37.8974,29.389 L34.6614,29.253 C33.6174,29.251 32.6244,28.838 31.8854,28.099 C31.1444,27.359 30.7304,26.361 30.7304,25.313 C30.7304,24.264 31.1444,23.267 31.8854,22.526 C32.6264,21.785 33.6244,21.371 34.6724,21.371 L52.2344,21.371 L52.2734,21.373 L59.7834,21.487 L59.8634,21.487 C60.9124,21.487 61.9094,21.9 62.6504,22.641 C63.3914,23.382 63.8054,24.379 63.8054,25.428 C63.8054,26.476 63.3914,27.473 62.6504,28.214 C61.9094,28.955 60.9124,29.368 59.8634,29.368 L59.8534,29.368 L59.8264,29.368 L55.7584,29.389 L55.7584,29.393 L37.9774,29.393 C37.9504,29.393 37.9234,29.392 37.8974,29.389" id="Fill-27" fill="#FFFFFF" mask="url(#mask-4)"></path>
            <path d="M37.935,28.8802 L34.672,28.7432 C33.725,28.7432 32.867,28.3592 32.247,27.7382 C31.625,27.1172 31.241,26.2602 31.241,25.3132 C31.241,24.3652 31.625,23.5072 32.247,22.8872 C32.867,22.2662 33.725,21.8812 34.672,21.8812 L52.221,21.8812 L52.256,21.8832 L59.864,21.9982 L59.864,21.9962 C60.811,21.9962 61.669,22.3812 62.289,23.0012 C62.911,23.6222 63.295,24.4812 63.295,25.4282 C63.295,26.3752 62.911,27.2332 62.289,27.8542 C61.669,28.4752 60.811,28.8592 59.864,28.8592 L59.835,28.8582 L55.248,28.8812 L55.248,28.8832 L37.977,28.8832 C37.963,28.8832 37.949,28.8822 37.935,28.8802" id="Fill-28" fill="#FFFFFF" mask="url(#mask-4)"></path>
            <path d="M37.935,28.8802 L34.672,28.7432 C33.725,28.7432 32.867,28.3592 32.247,27.7382 C31.625,27.1172 31.241,26.2602 31.241,25.3132 C31.241,24.3652 31.625,23.5072 32.247,22.8872 C32.867,22.2662 33.725,21.8812 34.672,21.8812 L52.221,21.8812 L52.256,21.8832 L59.864,21.9982 L59.864,21.9962 C60.811,21.9962 61.669,22.3812 62.289,23.0012 C62.911,23.6222 63.295,24.4812 63.295,25.4282 C63.295,26.3752 62.911,27.2332 62.289,27.8542 C61.669,28.4752 60.811,28.8592 59.864,28.8592 L59.835,28.8582 L55.248,28.8812 L55.248,28.8832 L37.977,28.8832 C37.963,28.8832 37.949,28.8822 37.935,28.8802 L37.935,28.8802 Z M34.685,28.0652 C41.535,28.3532 48.394,28.2022 55.248,28.2022 L55.248,28.2032 L59.832,28.1802 L59.864,28.1782 C60.623,28.1782 61.311,27.8702 61.809,27.3722 C62.307,26.8752 62.615,26.1872 62.615,25.4282 C62.615,24.6682 62.307,23.9812 61.809,23.4832 C61.311,22.9842 60.623,22.6772 59.864,22.6772 L59.864,22.6752 L52.246,22.5612 L52.221,22.5622 L34.672,22.5622 C33.913,22.5622 33.225,22.8692 32.727,23.3672 C32.229,23.8652 31.921,24.5532 31.921,25.3132 C31.921,26.0712 32.229,26.7602 32.727,27.2572 C33.225,27.7552 33.913,28.0632 34.672,28.0632 L34.672,28.0652 L34.685,28.0652 Z" id="Fill-29" fill="#787A7C" mask="url(#mask-4)"></path>
            <polygon id="Fill-30" fill="#787A7C" mask="url(#mask-4)" points="56.999 24.2161 33.496 24.0591 33.496 26.6651 56.999 26.6651"></polygon>
            <path d="M59.8437,23.3509 C60.4217,23.3509 60.9447,23.5849 61.3227,23.9629 C61.7007,24.3409 61.9357,24.8649 61.9357,25.4419 C61.9357,26.0199 61.7007,26.5419 61.3227,26.9209 C60.9447,27.2989 60.4217,27.5339 59.8437,27.5339 C59.2667,27.5339 58.7437,27.2989 58.3647,26.9209 C57.9867,26.5419 57.7527,26.0199 57.7527,25.4419 C57.7527,24.8649 57.9867,24.3409 58.3647,23.9629 C58.7437,23.5849 59.2667,23.3509 59.8437,23.3509 M61.0217,24.2639 C60.7207,23.9619 60.3037,23.7759 59.8437,23.7759 C59.3837,23.7759 58.9677,23.9619 58.6657,24.2639 C58.3647,24.5659 58.1777,24.9819 58.1777,25.4419 C58.1777,25.9019 58.3647,26.3189 58.6657,26.6209 C58.9677,26.9209 59.3837,27.1089 59.8437,27.1089 C60.3037,27.1089 60.7207,26.9209 61.0217,26.6209 C61.3237,26.3189 61.5107,25.9019 61.5107,25.4419 C61.5107,24.9819 61.3237,24.5659 61.0217,24.2639" id="Fill-31" fill="#787A7C" mask="url(#mask-4)"></path>
        </g>
    </g>
</svg>