<?xml version="1.0" encoding="utf-8"?>
<!-- Generator: Adobe Illustrator 23.0.3, SVG Export Plug-In . SVG Version: 6.00 Build 0)  -->
<svg version="1.1" id="Ebene_1" xmlns="http://www.w3.org/2000/svg" xmlns:xlink="http://www.w3.org/1999/xlink" x="0px" y="0px"
	 viewBox="0 0 783.5 143.5" style="enable-background:new 0 0 783.5 143.5;" xml:space="preserve">
<style type="text/css">
	.st0{fill:#ffffff;}
</style>
<title>Zeichenfläche 1</title>
<g>
	<g>
		<g>
			<g>
				<g>
					<path class="st0" d="M544.2,73.1c-3.6,0.9-7.6,1.3-11.8,1.3c-4.4,0-8.5-0.7-12.2-2.1c-3.7-1.4-6.9-3.4-9.6-5.9
						c-2.7-2.6-4.8-5.6-6.3-9.2c-1.5-3.6-2.3-7.5-2.3-11.9c0-4.4,0.8-8.4,2.3-12c1.5-3.6,3.7-6.7,6.4-9.2c2.7-2.5,5.9-4.5,9.5-5.8
						c3.7-1.4,7.6-2,11.8-2c4.4,0,8.4,0.7,12.2,2c3.7,1.3,6.8,3.1,9.2,5.3l-8.4,9.6c-1.3-1.5-3-2.8-5.1-3.7c-2.1-1-4.6-1.4-7.3-1.4
						c-2.3,0-4.5,0.4-6.5,1.3c-2,0.9-3.7,2.1-5.1,3.6c-1.5,1.5-2.6,3.4-3.4,5.5c-0.8,2.1-1.2,4.4-1.2,6.9c0,2.6,0.4,4.9,1.1,7
						c0.7,2.1,1.8,4,3.2,5.5c1.4,1.5,3.2,2.7,5.3,3.6c2.1,0.9,4.5,1.3,7.2,1.3c1.6,0,3-0.1,4.5-0.4c1.4-0.2,2.7-0.6,3.9-1.1V51.2
						h-10.5V40.4h22.8v29.3C551,71.1,547.8,72.3,544.2,73.1z"/>
					<path class="st0" d="M594.8,73.1l-12-22h-4.6v22h-13V17.8h21.1c2.7,0,5.2,0.3,7.8,0.8c2.5,0.6,4.8,1.5,6.8,2.8
						c2,1.3,3.6,3,4.8,5.2c1.2,2.1,1.8,4.8,1.8,8c0,3.8-1,6.9-3,9.5c-2,2.5-4.8,4.4-8.4,5.5l14.4,23.7H594.8z M594.3,34.7
						c0-1.3-0.3-2.4-0.8-3.2c-0.5-0.8-1.3-1.4-2.1-1.9c-0.9-0.4-1.8-0.7-2.9-0.9c-1.1-0.2-2.1-0.2-3.1-0.2h-7.1v12.9h6.4
						c1.1,0,2.2-0.1,3.4-0.3c1.1-0.2,2.2-0.5,3.1-1c0.9-0.5,1.7-1.1,2.3-2C594,37.3,594.3,36.1,594.3,34.7z"/>
					<path class="st0" d="M673.7,45.2c0,4.4-0.8,8.4-2.3,12c-1.5,3.6-3.6,6.7-6.3,9.3c-2.7,2.6-5.9,4.6-9.6,6
						c-3.7,1.4-7.7,2.1-12,2.1c-4.3,0-8.3-0.7-12-2.1c-3.7-1.4-6.8-3.4-9.5-6c-2.7-2.6-4.8-5.7-6.3-9.3c-1.5-3.6-2.3-7.6-2.3-12
						c0-4.4,0.8-8.4,2.3-12c1.5-3.6,3.6-6.6,6.3-9.1c2.7-2.5,5.9-4.4,9.5-5.8c3.7-1.4,7.7-2,12-2c4.3,0,8.3,0.7,12,2
						c3.7,1.3,6.9,3.3,9.6,5.8c2.7,2.5,4.8,5.5,6.3,9.1C672.9,36.8,673.7,40.8,673.7,45.2z M659.4,45.2c0-2.4-0.4-4.6-1.2-6.7
						c-0.8-2.1-1.9-3.9-3.2-5.4c-1.4-1.5-3-2.7-5-3.5c-2-0.9-4.1-1.3-6.4-1.3c-2.3,0-4.5,0.4-6.4,1.3c-1.9,0.9-3.6,2-5,3.5
						c-1.4,1.5-2.5,3.3-3.3,5.4c-0.7,2.1-1.1,4.3-1.1,6.7c0,2.5,0.4,4.8,1.2,6.9c0.8,2.1,1.9,3.9,3.2,5.4c1.4,1.5,3,2.7,4.9,3.6
						c1.9,0.9,4.1,1.3,6.4,1.3c2.3,0,4.5-0.4,6.4-1.3c1.9-0.9,3.6-2,5-3.6c1.4-1.5,2.5-3.3,3.3-5.4C659,50,659.4,47.7,659.4,45.2z"
						/>
					<path class="st0" d="M726.8,61.3c-1.1,2.7-2.7,5.1-4.8,7c-2.1,2-4.6,3.5-7.5,4.6c-2.9,1.1-6.2,1.6-9.8,1.6
						c-3.7,0-6.9-0.5-9.8-1.6c-2.9-1.1-5.4-2.6-7.4-4.6c-2-2-3.6-4.3-4.7-7c-1.1-2.7-1.6-5.8-1.6-9.1V17.8h13.3v33.3
						c0,1.5,0.2,2.9,0.6,4.3c0.4,1.4,1,2.6,1.8,3.6c0.8,1.1,1.9,1.9,3.2,2.5c1.3,0.6,2.9,0.9,4.8,0.9c1.9,0,3.5-0.3,4.8-0.9
						c1.3-0.6,2.4-1.5,3.3-2.5c0.8-1.1,1.4-2.3,1.8-3.6c0.4-1.3,0.6-2.8,0.6-4.3V17.8h13.4v34.4C728.5,55.5,727.9,58.6,726.8,61.3z"
						/>
					<path class="st0" d="M780.6,34.8c0,3.2-0.6,6-1.8,8.2c-1.2,2.2-2.8,4-4.8,5.3c-2,1.4-4.4,2.3-7,3c-2.7,0.6-5.4,0.9-8.3,0.9
						h-6.6v20.9h-13.4V17.8H759c3,0,5.8,0.3,8.5,0.9c2.6,0.6,4.9,1.6,6.9,2.9c1.9,1.3,3.5,3.1,4.6,5.2
						C780.1,29,780.6,31.6,780.6,34.8z M767.3,34.9c0-1.3-0.3-2.4-0.8-3.2c-0.5-0.8-1.2-1.5-2.1-2c-0.9-0.5-1.9-0.8-3-0.9
						c-1.1-0.2-2.3-0.2-3.5-0.2h-5.8v13h5.6c1.2,0,2.4-0.1,3.6-0.3c1.1-0.2,2.2-0.6,3.1-1.1c0.9-0.5,1.6-1.2,2.2-2.1
						C767,37.3,767.3,36.2,767.3,34.9z"/>
				</g>
				<path class="st0" d="M183.6,72.9h-13.1l-10.9-37.3h-0.2l-10.9,37.3h-13.2l-13.4-55.1h13.1l7.9,34.4l9.8-34.4h13.8l9.9,34.4
					l7.7-34.4h13L183.6,72.9z"/>
				<path class="st0" d="M203.4,72.9V17.8h13.4v55.1H203.4z"/>
				<path class="st0" d="M258.1,72.9l-12-21.9h-4.5v21.9h-13V17.8h21c2.6,0,5.2,0.3,7.7,0.8c2.5,0.5,4.8,1.5,6.8,2.8
					c2,1.3,3.6,3,4.8,5.1c1.2,2.1,1.8,4.8,1.8,7.9c0,3.7-1,6.9-3,9.4c-2,2.5-4.8,4.4-8.4,5.5l14.4,23.6H258.1z M257.6,34.7
					c0-1.3-0.3-2.3-0.8-3.2c-0.5-0.8-1.2-1.4-2.1-1.9c-0.9-0.4-1.8-0.7-2.9-0.9c-1.1-0.2-2.1-0.2-3.1-0.2h-7.1v12.8h6.3
					c1.1,0,2.2-0.1,3.4-0.3c1.1-0.2,2.2-0.5,3.1-1c0.9-0.5,1.7-1.1,2.3-2C257.3,37.2,257.6,36,257.6,34.7z"/>
				<path class="st0" d="M302.1,29.1v43.7h-13.3V29.1h-15.6V17.8h44.4v11.4H302.1z"/>
				<path class="st0" d="M359.1,73.1c-3.6,0.9-7.5,1.3-11.8,1.3c-4.4,0-8.5-0.7-12.2-2.1c-3.7-1.4-6.9-3.4-9.6-5.9
					c-2.7-2.5-4.8-5.6-6.3-9.1c-1.5-3.6-2.3-7.5-2.3-11.9c0-4.4,0.8-8.4,2.3-12c1.5-3.6,3.6-6.6,6.3-9.1c2.7-2.5,5.9-4.4,9.5-5.8
					c3.6-1.4,7.6-2,11.7-2c4.4,0,8.4,0.7,12.1,2c3.8,1.3,6.8,3.1,9.1,5.3l-8.4,9.6c-1.3-1.5-3-2.7-5.1-3.7c-2.1-1-4.5-1.4-7.2-1.4
					c-2.3,0-4.5,0.4-6.5,1.3c-2,0.9-3.7,2-5.1,3.6c-1.4,1.5-2.6,3.3-3.4,5.4c-0.8,2.1-1.2,4.4-1.2,6.9c0,2.5,0.4,4.9,1.1,7
					c0.7,2.1,1.8,4,3.2,5.5c1.4,1.5,3.2,2.7,5.3,3.6c2.1,0.9,4.5,1.3,7.2,1.3c1.5,0,3-0.1,4.4-0.4c1.4-0.2,2.7-0.6,3.9-1.1v-10
					h-10.5V40.5h22.7v29.2C365.9,71,362.7,72.2,359.1,73.1z"/>
				<path class="st0" d="M379.8,73V17.9h37v11.2h-24.2v10.4h22.9v10.7h-22.9v11.4h25.6V73H379.8z"/>
				<path class="st0" d="M462.5,73l-22.2-36H440l0.3,36h-12.9V17.9h15.2l22.1,36h0.2l-0.3-36h12.9V73H462.5z"/>
			</g>
		</g>
		<g>
			<path class="st0" d="M87.6,2.8H7.9c-2.8,0-5.1,2.3-5.1,5.1v74.6c0,2.8,2.3,5.1,5.1,5.1h79.8c2.8,0,5-2.3,5-5.1V7.9
				C92.7,5.1,90.4,2.8,87.6,2.8z M84.6,77.2c0,1.3-1.1,2.4-2.4,2.4h-69c-1.3,0-2.4-1.1-2.4-2.4V13.3c0-1.3,1.1-2.4,2.4-2.4h69
				c1.3,0,2.4,1.1,2.4,2.4V77.2z"/>
			<g>
				<g>
					<g>
						<polygon class="st0" points="42.2,32.7 35.1,44.7 26.6,24.3 15.9,24.3 33.3,66.1 42.3,66.1 46.7,32.7 						"/>
					</g>
				</g>
				<g>
					<g>
						<polygon class="st0" points="53.3,32.7 60.4,44.7 68.9,24.3 79.6,24.3 62.2,66.1 53.3,66.1 48.8,32.7 						"/>
					</g>
				</g>
			</g>
		</g>
	</g>
	<g>
		<path class="st0" d="M305.4,140.7l-2.1-5.3h-10.5l-2,5.3h-7.1l11.3-27.1h6.3l11.2,27.1H305.4z M298.1,120.9l-3.4,9.3h6.8
			L298.1,120.9z"/>
		<path class="st0" d="M337.7,134.8c-0.2,1.2-0.7,2.2-1.3,3.2c-0.7,1-1.6,1.8-2.7,2.4s-2.7,1-4.5,1c-2.3,0-4.2-0.6-5.7-1.8
			c-1.5-1.2-2.5-2.7-3.1-4.6l5.8-1.9c0.2,0.7,0.5,1.3,1,1.7c0.5,0.4,1.1,0.6,1.7,0.6c1.1,0,1.8-0.4,2.1-1.1c0.3-0.7,0.5-1.7,0.5-2.9
			v-17.8h6.6v17.8C338.1,132.5,338,133.6,337.7,134.8z"/>
		<path class="st0" d="M371.7,127.1c0,2.1-0.4,4.1-1.1,5.9c-0.7,1.8-1.8,3.3-3.1,4.5c-1.3,1.3-2.9,2.2-4.7,2.9c-1.8,0.7-3.8,1-5.9,1
			s-4.1-0.3-5.9-1c-1.8-0.7-3.3-1.7-4.7-2.9s-2.3-2.8-3.1-4.5c-0.7-1.8-1.1-3.7-1.1-5.9c0-2.2,0.4-4.1,1.1-5.9
			c0.7-1.7,1.8-3.2,3.1-4.5s2.9-2.2,4.7-2.8c1.8-0.7,3.8-1,5.9-1s4.1,0.3,5.9,1c1.8,0.7,3.4,1.6,4.7,2.8c1.3,1.2,2.3,2.7,3.1,4.5
			C371.4,122.9,371.7,124.9,371.7,127.1z M364.7,127.1c0-1.2-0.2-2.3-0.6-3.3c-0.4-1-0.9-1.9-1.6-2.6c-0.7-0.7-1.5-1.3-2.4-1.7
			c-1-0.4-2-0.6-3.2-0.6c-1.1,0-2.2,0.2-3.1,0.6c-0.9,0.4-1.8,1-2.4,1.7c-0.7,0.7-1.2,1.6-1.6,2.6c-0.4,1-0.6,2.1-0.6,3.3
			c0,1.2,0.2,2.3,0.6,3.4c0.4,1,0.9,1.9,1.6,2.7s1.5,1.3,2.4,1.7c0.9,0.4,2,0.6,3.1,0.6c1.1,0,2.2-0.2,3.1-0.6
			c0.9-0.4,1.8-1,2.4-1.7c0.7-0.7,1.2-1.6,1.6-2.7C364.5,129.4,364.7,128.3,364.7,127.1z"/>
		<path class="st0" d="M393.1,140.7v-11.3h-10.5v11.3H376v-27.1h6.5v10.2h10.5v-10.2h6.5v27.1H393.1z"/>
		<path class="st0" d="M422.4,140.7L411.5,123h-0.1l0.2,17.7h-6.3v-27.1h7.5l10.9,17.7h0.1l-0.2-17.7h6.3v27.1H422.4z"/>
		<path class="st0" d="M470.2,127.1c0,2.4-0.4,4.4-1.3,6.1c-0.9,1.7-2,3.1-3.5,4.2c-1.4,1.1-3.1,1.9-4.9,2.4
			c-1.8,0.5-3.6,0.8-5.5,0.8H445v-27.1h9.8c1.9,0,3.8,0.2,5.7,0.7c1.9,0.4,3.5,1.2,5,2.2c1.5,1,2.6,2.4,3.5,4.1
			C469.8,122.4,470.2,124.6,470.2,127.1z M463.4,127.1c0-1.5-0.2-2.8-0.7-3.8c-0.5-1-1.2-1.8-2-2.4s-1.8-1-2.8-1.3
			c-1.1-0.3-2.1-0.4-3.3-0.4h-3.2V135h3.1c1.2,0,2.3-0.1,3.4-0.4c1.1-0.3,2-0.7,2.9-1.3c0.8-0.6,1.5-1.4,2-2.4
			C463.2,129.9,463.4,128.6,463.4,127.1z"/>
		<path class="st0" d="M474.5,140.7v-27.1h18.2v5.5h-11.9v5.1h11.2v5.2h-11.2v5.6h12.6v5.6H474.5z"/>
		<path class="st0" d="M497.7,140.7v-27.1h18.2v5.5H504v5.1h11.2v5.2H504v5.6h12.6v5.6H497.7z"/>
		<path class="st0" d="M535.4,140.7l-5.9-10.7h-2.2v10.7h-6.4v-27.1h10.3c1.3,0,2.6,0.1,3.8,0.4c1.2,0.3,2.3,0.7,3.3,1.4
			c1,0.6,1.8,1.5,2.3,2.5c0.6,1,0.9,2.3,0.9,3.9c0,1.8-0.5,3.4-1.5,4.6c-1,1.2-2.4,2.1-4.1,2.7l7.1,11.6H535.4z M535.1,121.9
			c0-0.6-0.1-1.2-0.4-1.5c-0.3-0.4-0.6-0.7-1-0.9c-0.4-0.2-0.9-0.4-1.4-0.4c-0.5-0.1-1-0.1-1.5-0.1h-3.5v6.3h3.1
			c0.5,0,1.1,0,1.7-0.1c0.6-0.1,1.1-0.2,1.5-0.5c0.5-0.2,0.8-0.6,1.1-1C535,123.2,535.1,122.6,535.1,121.9z"/>
		<path class="st0" d="M546.3,140.7v-27.1h18.2v5.5h-11.9v5.1h11.2v5.2h-11.2v5.6h12.6v5.6H546.3z"/>
		<path class="st0" d="M598.4,140.2c-1.8,0.8-3.8,1.2-6.1,1.2c-2.1,0-4-0.3-5.8-1c-1.8-0.7-3.3-1.7-4.6-2.9s-2.3-2.8-3.1-4.5
			c-0.7-1.8-1.1-3.7-1.1-5.8c0-2.2,0.4-4.1,1.1-5.9c0.8-1.8,1.8-3.3,3.1-4.5c1.3-1.2,2.9-2.2,4.7-2.8c1.8-0.7,3.7-1,5.8-1
			c1.9,0,3.8,0.3,5.6,1c1.8,0.7,3.3,1.7,4.5,3l-4.4,4.4c-0.6-0.8-1.4-1.5-2.4-1.9c-1-0.4-2-0.6-3.1-0.6c-1.1,0-2.2,0.2-3.2,0.6
			c-1,0.4-1.8,1-2.5,1.7c-0.7,0.7-1.2,1.6-1.6,2.6c-0.4,1-0.6,2.1-0.6,3.3c0,1.2,0.2,2.3,0.6,3.4c0.4,1,0.9,1.9,1.6,2.6
			c0.7,0.7,1.5,1.3,2.4,1.7c0.9,0.4,2,0.6,3.1,0.6c1.3,0,2.4-0.3,3.4-0.8c1-0.5,1.7-1.2,2.3-2l4.5,4.3
			C601.6,138.3,600.1,139.4,598.4,140.2z"/>
		<path class="st0" d="M633.3,127.1c0,2.1-0.4,4.1-1.1,5.9c-0.7,1.8-1.8,3.3-3.1,4.5c-1.3,1.3-2.9,2.2-4.7,2.9c-1.8,0.7-3.8,1-5.9,1
			c-2.1,0-4.1-0.3-5.9-1c-1.8-0.7-3.3-1.7-4.7-2.9s-2.3-2.8-3.1-4.5c-0.7-1.8-1.1-3.7-1.1-5.9c0-2.2,0.4-4.1,1.1-5.9
			c0.7-1.7,1.8-3.2,3.1-4.5s2.9-2.2,4.7-2.8c1.8-0.7,3.8-1,5.9-1c2.1,0,4.1,0.3,5.9,1c1.8,0.7,3.4,1.6,4.7,2.8
			c1.3,1.2,2.3,2.7,3.1,4.5C633,122.9,633.3,124.9,633.3,127.1z M626.3,127.1c0-1.2-0.2-2.3-0.6-3.3c-0.4-1-0.9-1.9-1.6-2.6
			c-0.7-0.7-1.5-1.3-2.4-1.7c-1-0.4-2-0.6-3.2-0.6c-1.1,0-2.2,0.2-3.1,0.6c-0.9,0.4-1.8,1-2.4,1.7c-0.7,0.7-1.2,1.6-1.6,2.6
			c-0.4,1-0.6,2.1-0.6,3.3c0,1.2,0.2,2.3,0.6,3.4c0.4,1,0.9,1.9,1.6,2.7c0.7,0.7,1.5,1.3,2.4,1.7c0.9,0.4,2,0.6,3.1,0.6
			c1.1,0,2.2-0.2,3.1-0.6c0.9-0.4,1.8-1,2.4-1.7c0.7-0.7,1.2-1.6,1.6-2.7C626.2,129.4,626.3,128.3,626.3,127.1z"/>
		<path class="st0" d="M662.2,140.7l0.2-19.1h-0.1l-7,19.1h-4.6l-6.8-19.1h-0.1l0.2,19.1h-6.2v-27.1h9.3l6.2,17.3h0.2l5.9-17.3h9.5
			v27.1H662.2z"/>
		<path class="st0" d="M694.7,122c0,1.6-0.3,2.9-0.9,4c-0.6,1.1-1.4,2-2.4,2.6c-1,0.7-2.1,1.1-3.4,1.5s-2.6,0.5-4,0.5h-3.2v10.2
			h-6.5v-27.1h9.9c1.5,0,2.9,0.1,4.1,0.4c1.3,0.3,2.4,0.8,3.4,1.4c1,0.6,1.7,1.5,2.3,2.6S694.7,120.4,694.7,122z M688.1,122
			c0-0.6-0.1-1.2-0.4-1.6c-0.3-0.4-0.6-0.7-1-1c-0.4-0.2-0.9-0.4-1.5-0.5c-0.5-0.1-1.1-0.1-1.7-0.1h-2.9v6.4h2.8
			c0.6,0,1.2-0.1,1.8-0.2c0.6-0.1,1.1-0.3,1.5-0.5c0.4-0.3,0.8-0.6,1.1-1C688,123.2,688.1,122.7,688.1,122z"/>
		<path class="st0" d="M714.6,140.7l-2.1-5.3h-10.5l-2,5.3H693l11.3-27.1h6.3l11.2,27.1H714.6z M707.4,120.9l-3.4,9.3h6.8
			L707.4,120.9z"/>
		<path class="st0" d="M741.4,140.7L730.5,123h-0.1l0.2,17.7h-6.3v-27.1h7.5l10.9,17.7h0.1l-0.2-17.7h6.3v27.1H741.4z"/>
		<path class="st0" d="M767.5,129.2v11.5H761v-11.5l-10.2-15.6h7.9l5.8,10l5.8-10h7.6L767.5,129.2z"/>
	</g>
</g>
</svg>
