<svg id="Ebene_1" data-name="Ebene 1" xmlns="http://www.w3.org/2000/svg" viewBox="0 0 426.30236 90.70866"><defs><style>.cls-1{fill:#485358;}.cls-2{fill:#008a5b;}</style></defs><title>Zeichenfläche 8</title><path class="cls-1" d="M155.868,72.88h-13.3242l-20.8809-55.1431h14.9648l12.7618,39.0962h.3203l12.6933-39.0962h14.7188Z"/><path class="cls-1" d="M234.28993,45.07478a30.62558,30.62558,0,0,1-2.2618,11.9536,27.01663,27.01663,0,0,1-6.2636,9.2696,27.8804,27.8804,0,0,1-9.5489,5.955,35.08746,35.08746,0,0,1-23.9433,0,28.0192,28.0192,0,0,1-9.5078-5.955,27.17714,27.17714,0,0,1-6.2618-9.2696,30.69627,30.69627,0,0,1-2.2539-11.9536,30.37054,30.37054,0,0,1,2.2539-11.957,26.19543,26.19543,0,0,1,6.2618-9.0713,27.96135,27.96135,0,0,1,9.5078-5.7647,36.42737,36.42737,0,0,1,23.9433,0,27.82911,27.82911,0,0,1,9.5489,5.7647,26.04333,26.04333,0,0,1,6.2636,9.0713A30.30042,30.30042,0,0,1,234.28993,45.07478Zm-14.25,0a18.89218,18.89218,0,0,0-1.1739-6.6963,15.90149,15.90149,0,0,0-3.2304-5.3379,14.86941,14.86941,0,0,0-4.9805-3.5039,15.83952,15.83952,0,0,0-6.4277-1.2871,15.32411,15.32411,0,0,0-11.3672,4.791,15.10985,15.10985,0,0,0-3.2383,5.3379,19.36935,19.36935,0,0,0-1.1328,6.6963,19.822,19.822,0,0,0,1.1718,6.8911,16.39525,16.39525,0,0,0,3.2325,5.4141,14.84693,14.84693,0,0,0,4.9472,3.541,16.50226,16.50226,0,0,0,12.7696,0,15.17281,15.17281,0,0,0,4.9882-3.541,15.89554,15.89554,0,0,0,3.2676-5.4141A19.68623,19.68623,0,0,0,220.03993,45.07478Zm-17.6856-38.3994a6.07745,6.07745,0,0,1-1.9023,4.5605,6.454,6.454,0,0,1-4.6387,1.8291,6.25083,6.25083,0,0,1-4.5918-1.8691,6.16686,6.16686,0,0,1-1.877-4.5205,5.603,5.603,0,0,1,.5176-2.3711,6.8361,6.8361,0,0,1,1.3594-2.0283,6.0931,6.0931,0,0,1,2.0566-1.4024,6.57664,6.57664,0,0,1,2.5352-.5058,6.4623,6.4623,0,0,1,4.6387,1.8291A5.98634,5.98634,0,0,1,202.35433,6.67538Zm16.9824,0a6.064,6.064,0,0,1-1.9199,4.5605,6.42307,6.42307,0,0,1-4.5781,1.8291,6.31764,6.31764,0,0,1-4.6309-1.8691,6.14082,6.14082,0,0,1-1.873-4.5205,5.71025,5.71025,0,0,1,.5039-2.3711,7.22072,7.22072,0,0,1,1.3691-2.0283,6.26537,6.26537,0,0,1,2.0313-1.4024,6.58507,6.58507,0,0,1,2.5996-.5058,6.43149,6.43149,0,0,1,4.5781,1.8291A5.97387,5.97387,0,0,1,219.33673,6.67538Z"/><path class="cls-1" d="M281.05943,72.95808a49.754,49.754,0,0,1-11.7969,1.3223,34.363,34.363,0,0,1-12.1933-2.1016,28.21478,28.21478,0,0,1-9.5821-5.9199,27.1815,27.1815,0,0,1-6.2695-9.1524,30.22743,30.22743,0,0,1-2.252-11.8745,30.13488,30.13488,0,0,1,2.295-11.998,26.53861,26.53861,0,0,1,6.3496-9.1494,28.04328,28.04328,0,0,1,9.5-5.8028,33.49978,33.49978,0,0,1,11.7656-2.0234,36.195,36.195,0,0,1,12.1523,1.9824,25.124,25.124,0,0,1,9.1055,5.3389l-8.4082,9.581a14.55309,14.55309,0,0,0-5.1523-3.7021,17.38159,17.38159,0,0,0-7.2286-1.4404,16.08,16.08,0,0,0-6.4687,1.2832,15.4381,15.4381,0,0,0-5.1426,3.5849,16.39192,16.39192,0,0,0-3.3945,5.4502,19.22652,19.22652,0,0,0-1.2031,6.8955,21.49535,21.49535,0,0,0,1.0898,7.0093,15.02427,15.02427,0,0,0,3.2324,5.4883,14.68385,14.68385,0,0,0,5.2969,3.584,18.94552,18.94552,0,0,0,7.1973,1.2851,27.22055,27.22055,0,0,0,4.4453-.3496,16.61242,16.61242,0,0,0,3.9004-1.1308V51.07578h-10.5235v-10.752h22.75v29.2066A42.55636,42.55636,0,0,1,281.05943,72.95808Z"/><path class="cls-1" d="M299.86413,72.88V17.73688h37.0742v11.2129h-24.2227v10.4404H335.618v10.6709h-22.9024v11.4458h25.6211V72.88Z"/><path class="cls-1" d="M345.59063,72.88V17.73688h13.3926v43.5376h21.3379V72.88Z"/><path class="cls-1" d="M384.99493,72.88V17.73688h37.0703v11.2129h-24.2148v10.4404H420.743v10.6709h-22.8926v11.4458h25.6191V72.88Z"/><path class="cls-1" d="M85.866,2.83458H9.33093a6.51763,6.51763,0,0,0-6.4981,6.4961v72.0454a6.5168,6.5168,0,0,0,6.4981,6.498H85.866a6.51509,6.51509,0,0,0,6.4961-6.498V9.33068A6.51592,6.51592,0,0,0,85.866,2.83458Zm1.5,76.9829a3.06753,3.06753,0,0,1-3.0547,3.0586H10.88753a3.06841,3.06841,0,0,1-3.0586-3.0586V10.88928a3.06834,3.06834,0,0,1,3.0586-3.0586h73.4238a3.06746,3.06746,0,0,1,3.0547,3.0586Z"/><path class="cls-2" d="M81.12873,12.44878H14.07213a1.53627,1.53627,0,0,0-1.5313,1.5313v62.7495a1.53715,1.53715,0,0,0,1.5313,1.5293h67.0566a1.53462,1.53462,0,0,0,1.5254-1.5293V13.98008A1.53375,1.53375,0,0,0,81.12873,12.44878ZM77.326,71.80968a1.15156,1.15156,0,0,1-1.1485,1.1484H19.033a1.15121,1.15121,0,0,1-1.1465-1.1484V18.94048A1.1491,1.1491,0,0,1,19.033,17.796h57.1445a1.14946,1.14946,0,0,1,1.1485,1.1445Z"/><polygon class="cls-1" points="43.182 35.423 37.516 44.97 30.714 28.724 22.175 28.724 36.063 61.987 43.206 61.987 46.776 35.423 43.182 35.423"/><polygon class="cls-1" points="52.013 35.423 57.681 44.97 64.481 28.724 73.02 28.724 59.134 61.987 51.989 61.987 48.421 35.423 52.013 35.423"/></svg>