<?xml version="1.0" encoding="UTF-8"?>
<svg width="130px" height="95px" viewBox="0 0 130 95" version="1.1" xmlns="http://www.w3.org/2000/svg" xmlns:xlink="http://www.w3.org/1999/xlink">
    <!-- Generator: Sketch 56.3 (81716) - https://sketch.com -->
    <title>brand-selector/voegele</title>
    <desc>Created with Sketch.</desc>
    <defs>
        <polygon id="path-1" points="0.7665 0.365 19.7857825 0.365 19.7857825 3.6859 0.7665 3.6859"></polygon>
        <polygon id="path-3" points="0 0.0416 39.6566 0.0416 39.6566 10.5046 0 10.5046"></polygon>
    </defs>
    <g id="brand-selector/voegele" stroke="none" stroke-width="1" fill="none" fill-rule="evenodd">
        <g id="Group-51" transform="translate(35.000000, 57.000000)">
            <path d="M26.1407,13.2535 C26.1407,13.2535 26.7357,13.1215 26.7357,12.7405 C26.7357,12.2455 25.8907,12.0225 24.7407,12.1465 C24.1567,12.2085 23.7107,12.2935 23.3807,12.3755 L23.5407,11.5925 C23.6177,11.2195 23.6257,11.1705 23.5377,10.8395 L23.3507,10.3855 L22.6637,8.7165 C22.4647,8.4125 22.3857,8.4375 22.3857,8.4375 L22.0567,8.4375 L21.9077,8.4375 C21.5977,8.4375 21.7087,8.7215 21.7087,8.7215 L22.3387,13.0005 C22.3707,13.2175 22.6637,13.2655 22.8347,13.2535 L22.8347,14.2275 C23.0427,14.4815 23.2297,14.7535 23.3847,15.0425 L23.6797,15.0425 L23.9597,15.6735 C24.8297,15.6995 25.7347,15.6775 26.6077,15.6795 L26.5367,15.0425 L26.5367,14.5755 L26.1407,14.5755 L26.1407,13.2535 Z" id="Fill-1" fill="#787A7C"></path>
            <path d="M40.0943,3.0382 L40.3443,2.0522 L39.2113,2.7082 L39.2103,15.8512 C39.2103,16.0572 39.3723,16.2252 39.5713,16.2252 C39.7703,16.2252 39.9323,16.0572 39.9323,15.8512 L39.9363,3.1312 L40.0943,3.0382 Z" id="Fill-3" fill="#787A7C"></path>
            <polygon id="Fill-5" fill="#787A7C" points="29.9688 10.6852 29.5498 11.4772 30.4558 11.7722 30.6798 12.0832 30.9468 12.8832 30.3068 15.7242 29.7348 15.7412 28.9838 15.7412 29.0718 15.2352 27.9978 12.7962 27.7118 11.8382 27.4118 11.9032 27.0028 11.2952 29.3648 10.4792 30.0148 9.3112 30.2758 9.8992"></polygon>
            <path d="M20.5523,24.4391 L19.9483,24.4131 L22.0943,19.1951 L27.2563,19.2521 L31.1493,23.0881 L31.1493,22.6581 L38.7273,19.7921 L40.2473,19.9221 L39.9923,25.2381 L40.3183,25.6141 L57.0723,26.8521 L57.0723,29.5861 L54.1163,29.6491 L51.2443,29.7701 C51.2613,29.6461 51.2703,29.5211 51.2703,29.3931 C51.2703,28.6391 50.9643,27.9561 50.4703,27.4611 C49.9753,26.9661 49.2913,26.6591 48.5383,26.6591 L24.1623,25.1111 C24.1483,25.1091 24.1353,25.1081 24.1213,25.1081 C23.1533,25.1081 22.2763,25.5011 21.6423,26.1341 C21.0083,26.7691 20.6153,27.6451 20.6153,28.6131 C20.6153,29.0611 20.6993,29.4881 20.8523,29.8811 L20.4143,29.8811 L20.4143,24.5921 L20.5523,24.4391 Z" id="Fill-7" fill="#787A7C"></path>
            <path d="M24.2066,24.6021 L48.5546,26.1491 C49.4116,26.1531 50.2256,26.4951 50.8316,27.1011 C51.4406,27.7101 51.7806,28.5311 51.7806,29.3931 C51.7806,30.2551 51.4406,31.0761 50.8306,31.6851 C50.2216,32.2951 49.4006,32.6351 48.5386,32.6351 L48.0276,32.6351 L48.0276,32.6341 L24.6306,32.6271 L24.6306,32.6281 L24.1216,32.6281 C23.0526,32.6281 22.0366,32.2071 21.2816,31.4521 C20.5256,30.6971 20.1046,29.6811 20.1046,28.6131 C20.1046,27.5451 20.5266,26.5291 21.2816,25.7731 C22.0366,25.0191 23.0526,24.5981 24.1216,24.5981 C24.1496,24.5981 24.1786,24.5991 24.2066,24.6021" id="Fill-9" fill="#FFFFFF"></path>
            <path d="M24.1622,25.1109 L48.5382,26.6589 C49.2912,26.6589 49.9752,26.9659 50.4702,27.4609 C50.9642,27.9559 51.2702,28.6389 51.2702,29.3929 C51.2702,30.1469 50.9642,30.8299 50.4702,31.3249 C49.9752,31.8189 49.2922,32.1249 48.5382,32.1249 L48.5382,32.1239 L24.1212,32.1169 L24.1212,32.1179 C23.1532,32.1179 22.2762,31.7259 21.6422,31.0919 C21.0072,30.4579 20.6152,29.5809 20.6152,28.6129 C20.6152,27.6449 21.0082,26.7689 21.6422,26.1339 C22.2762,25.5009 23.1532,25.1079 24.1212,25.1079 C24.1352,25.1079 24.1482,25.1089 24.1622,25.1109" id="Fill-11" fill="#FFFFFF"></path>
            <polygon id="Fill-13" fill="#787A7C" points="33.3477 4.0196 33.8477 4.1426 31.7247 12.6366 31.2237 12.5136"></polygon>
            <path d="M17.1905,13.1671 L17.1895,13.1571 L17.1895,10.0241 L16.9765,9.5981 L16.9765,8.5921 C16.9765,8.3691 17.1565,8.2041 17.3705,8.1851 L17.3715,8.1851 L17.3715,1.8721 L18.7885,1.8721 L18.7885,8.6071 C18.7965,8.6481 18.8015,8.6881 18.8055,8.7301 C18.8245,8.9261 18.8415,9.1251 18.8555,9.3231 C18.8675,9.3361 18.9025,9.3471 18.9145,9.3501 C19.2445,9.4361 19.6715,9.4661 19.7405,9.8971 C19.7995,10.2651 19.5325,10.4611 19.2535,10.6131 C19.2115,10.6361 19.0765,10.7371 19.0855,10.7931 C19.1275,11.0661 19.1625,11.3421 19.2005,11.6161 C19.2365,11.8771 19.2675,12.1761 19.3205,12.4331 C19.3435,12.5401 19.3365,12.6001 19.4345,12.6591 C20.1045,13.0671 20.8365,13.6521 21.3825,14.2181 C21.7045,14.5521 22.0045,14.9911 22.2655,15.3901 L29.9995,15.3901 L30.0025,15.3771 C30.0775,15.0021 30.1535,14.6281 30.2295,14.2541 C30.3045,13.8831 30.3985,13.4861 30.4555,13.1181 C30.4685,12.9821 30.4525,12.7731 30.4475,12.6331 C30.4415,12.4561 30.4325,12.2791 30.4245,12.1031 L30.3855,11.7331 L30.7415,11.8241 C31.5925,12.0411 32.4435,12.2631 33.2965,12.4751 C33.5615,12.5421 33.7555,12.8171 33.6075,13.0711 C33.3685,13.5411 33.1485,14.0391 32.9445,14.5231 C32.5775,15.3991 32.2425,16.3021 31.9085,17.1951 L32.0285,17.1981 L31.6165,18.4451 L21.4265,18.4451 L21.3565,18.3041 C20.8785,17.3481 20.3555,16.4161 19.8745,15.4621 C19.7455,15.2051 19.3335,14.8171 19.1035,14.6451 C18.8455,14.4521 18.5365,14.2661 18.2645,14.0911 C17.9655,13.8991 17.6585,13.7111 17.3635,13.5161 C17.2485,13.4391 17.2015,13.2981 17.1905,13.1671" id="Fill-15" fill="#FFFFFF"></path>
            <path d="M30.253,15.4269 L30.252,15.4309 L30.251,15.4359 L30.25,15.4399 L30.25,15.4409 L30.249,15.4449 L30.248,15.4489 L30.247,15.4519 L30.247,15.4529 L30.246,15.4569 L30.245,15.4619 L30.244,15.4639 L30.244,15.4659 L30.243,15.4689 L30.241,15.4729 L30.241,15.4759 L30.24,15.4769 L30.239,15.4809 L30.238,15.4849 L30.237,15.4869 L30.236,15.4889 L30.235,15.4919 L30.234,15.4949 L30.233,15.4969 L30.232,15.4989 L30.23,15.5059 L30.23,15.5079 L30.229,15.5099 L30.226,15.5159 L30.226,15.5169 L30.224,15.5189 L30.223,15.5219 L30.222,15.5259 L30.221,15.5259 L30.22,15.5289 L30.219,15.5319 L30.217,15.5349 L30.215,15.5379 L30.214,15.5409 L30.212,15.5429 L30.211,15.5459 L30.209,15.5489 L30.208,15.5519 L30.208,15.5519 L30.206,15.5539 L30.204,15.5569 L30.203,15.5589 L30.202,15.5599 L30.199,15.5649 L30.198,15.5669 L30.197,15.5669 L30.195,15.5699 L30.193,15.5719 L30.192,15.5729 L30.192,15.5739 L30.19,15.5759 L30.188,15.5789 L30.187,15.5799 L30.186,15.5809 L30.183,15.5849 L30.182,15.5859 L30.181,15.5869 L30.178,15.5899 L30.176,15.5919 L30.176,15.5919 L30.174,15.5939 L30.172,15.5949 L30.17,15.5969 L30.17,15.5979 L30.169,15.5989 L30.166,15.6009 L30.164,15.6019 L30.164,15.6029 L30.158,15.6079 L30.158,15.6079 L30.151,15.6129 C30.13,15.6279 30.106,15.6379 30.08,15.6449 L22.127,15.6449 C21.813,15.1599 21.474,14.6809 21.199,14.3959 C20.588,13.7629 19.768,13.1609 19.301,12.8769 C19.118,12.7649 19.106,12.6469 19.071,12.4849 C19.038,12.3229 18.867,11.0539 18.833,10.8319 C18.799,10.6109 19.038,10.4409 19.131,10.3889 C19.225,10.3389 19.531,10.2019 19.489,9.9379 C19.446,9.6739 19.08,9.6569 18.85,9.5969 C18.62,9.5379 18.603,9.3669 18.603,9.3669 C18.603,9.3669 18.577,9.0179 18.552,8.7539 C18.547,8.7059 18.541,8.6649 18.531,8.6309 L18.533,8.6309 L18.533,2.1279 L17.626,2.1279 L17.626,8.4389 L17.394,8.4389 C17.394,8.4389 17.232,8.4559 17.232,8.5919 L17.232,9.5379 L17.444,9.9639 L17.444,13.1409 C17.444,13.1409 17.453,13.2689 17.504,13.3029 C17.555,13.3369 19.015,14.2599 19.256,14.4409 C19.406,14.5529 19.926,14.9979 20.102,15.3469 C20.583,16.3009 21.106,17.2319 21.585,18.1899 L31.433,18.1899 L31.679,17.4449 L31.544,17.4419 C31.561,17.3959 32.35,15.2819 32.71,14.4249 C33.074,13.5579 33.384,12.9479 33.384,12.9479 C33.438,12.8629 33.363,12.7549 33.234,12.7229 C33.142,12.6999 31.564,12.2969 30.678,12.0709 L30.68,12.0839 C30.68,12.0839 30.726,13.0329 30.708,13.1529 C30.69,13.2739 30.308,15.1479 30.253,15.4269" id="Fill-17" fill="#787A7C"></path>
            <path d="M22.4424,19.2291 L22.3784,19.4081 L19.6474,16.2261 L18.2474,16.1281 L17.2824,20.8491 L17.1134,20.8111 L16.7074,22.7941 L16.2524,22.8691 L16.6924,20.7141 L16.5594,20.6841 L17.5724,15.7461 L17.5964,15.7521 L17.5964,15.6021 C17.5964,15.5091 17.7474,15.3661 17.9124,15.3581 C18.0774,15.3511 19.8184,15.3371 19.8764,15.3371 C19.9334,15.3371 20.8654,16.0681 20.8654,16.0681 L22.4424,19.2291 Z" id="Fill-19" fill="#787A7C"></path>
            <path d="M24.1622,25.1109 L48.5382,26.6589 C49.2912,26.6589 49.9752,26.9659 50.4702,27.4609 C50.9642,27.9559 51.2702,28.6389 51.2702,29.3929 C51.2702,30.1469 50.9642,30.8299 50.4702,31.3249 C49.9752,31.8189 49.2922,32.1249 48.5382,32.1249 L48.5382,32.1239 L24.1212,32.1169 L24.1212,32.1179 C23.1532,32.1179 22.2762,31.7259 21.6422,31.0919 C21.0072,30.4579 20.6152,29.5809 20.6152,28.6129 C20.6152,27.6449 21.0082,26.7689 21.6422,26.1339 C22.2762,25.5009 23.1532,25.1079 24.1212,25.1079 C24.1352,25.1079 24.1482,25.1089 24.1622,25.1109 L24.1622,25.1109 Z M48.5182,27.2959 L24.1212,25.7459 C23.3292,25.7459 22.6122,26.0669 22.0932,26.5859 C21.5742,27.1039 21.2532,27.8209 21.2532,28.6129 C21.2532,29.4049 21.5742,30.1219 22.0932,30.6409 C22.6122,31.1589 23.3292,31.4809 24.1212,31.4809 L24.1212,31.4819 L48.5382,31.4889 L48.5382,31.4869 C49.1162,31.4869 49.6402,31.2529 50.0192,30.8739 C50.3982,30.4949 50.6332,29.9709 50.6332,29.3929 C50.6332,28.8129 50.3982,28.2889 50.0192,27.9099 C49.6412,27.5309 49.1172,27.2979 48.5382,27.2979 L48.5182,27.2959 Z" id="Fill-21" fill="#787A7C"></path>
            <path d="M57.9737,29.2916 C58.1127,29.4366 58.3077,29.5266 58.5237,29.5266 C58.9447,29.5266 59.2867,29.1856 59.2867,28.7646 C59.2867,28.3436 58.9447,28.0026 58.5237,28.0026 C58.2917,28.0026 58.0837,28.1056 57.9437,28.2696 L57.4117,28.2696 L57.4117,29.6056 L57.9737,29.6056 L57.9737,29.2916 Z" id="Fill-23" fill="#787A7C"></path>
            <path d="M30.0152,22.8282 C29.7032,22.5852 29.3462,22.3552 29.0112,22.1472 C28.1672,21.6232 27.2722,21.1642 26.3542,20.7842 C25.0492,20.2432 23.4462,19.7642 22.0402,19.5452 L21.8672,19.5192 L21.0332,17.8632 L31.8982,17.8532 L31.7582,18.2952 C31.5422,18.9822 31.3222,19.6792 31.1302,20.3712 C30.9232,21.1202 30.7392,21.8852 30.5552,22.6402 L30.4312,23.1522 L30.0152,22.8282 Z" id="Fill-25" fill="#FFFFFF"></path>
            <path d="M31.4337,18.1935 L21.5847,18.2025 L22.0917,19.2095 C22.0917,19.2095 24.2307,19.5365 26.4837,20.4695 C28.7377,21.4025 30.2247,22.5595 30.2247,22.5595 C30.2247,22.5595 30.6287,20.9075 30.8027,20.2815 C30.9757,19.6545 31.4337,18.1935 31.4337,18.1935" id="Fill-27" fill="#00953F"></path>
            <g id="Group-31" transform="translate(15.000000, 0.635500)">
                <mask id="mask-2" fill="white">
                    <use xlink:href="#path-1"></use>
                </mask>
                <g id="Clip-30"></g>
                <path d="M19.7735,3.6859 C19.7735,3.6859 19.7905,2.8139 19.7845,2.6709 C19.7745,2.4389 19.6515,2.3629 19.2155,2.2679 C19.1345,2.2499 18.6925,2.1529 17.9935,2.0159 C17.9285,1.9019 17.7025,1.5329 17.4405,1.3809 C17.1295,1.2009 16.1345,1.0339 15.0895,0.9429 C15.0895,0.9429 10.5495,0.5189 8.3985,0.4419 C6.2465,0.3649 3.0245,0.3649 2.8755,0.3649 C2.7255,0.3649 2.5395,0.5189 2.5395,0.5189 L2.5505,0.5279 C2.1015,0.5179 1.8105,0.5149 1.7135,0.5149 C1.2925,0.5169 1.2045,0.5379 1.1615,0.6579 C1.1255,0.7609 0.7665,1.8449 0.7665,1.8449 L2.7045,1.8859 C2.7045,1.8859 4.4645,1.8249 6.8575,1.9469 C9.2515,2.0699 10.9705,2.1869 11.2295,2.2129 C11.8415,2.2739 12.4355,2.8879 13.1675,2.9499 C13.8985,3.0109 15.4615,3.1539 16.3525,3.2359 C17.2415,3.3179 19.7735,3.6859 19.7735,3.6859" id="Fill-29" fill="#FFE400" mask="url(#mask-2)"></path>
            </g>
            <path d="M39.0797,20.4102 L38.6477,24.3742 L31.8457,24.3272 L29.8467,22.6902 L29.8917,22.4862 C30.0147,21.9342 30.1577,21.3812 30.3037,20.8362 C30.6257,19.6292 30.9867,18.4262 31.4047,17.2482 C31.7937,16.1492 32.2427,15.0662 32.7417,14.0122 C32.9457,13.5802 33.1607,13.1352 33.3937,12.7172 L33.5237,12.4832 L33.7827,12.5552 C34.0947,12.6422 34.4127,12.7562 34.7157,12.8662 C35.6117,13.1922 36.4957,13.5672 37.3627,13.9612 C38.3587,14.4152 39.5297,14.9432 40.4207,15.5922 C40.7097,15.8022 40.7427,16.1182 40.7237,16.4422 L40.5697,20.3692 L39.0967,20.3732 C39.0887,20.3802 39.0827,20.3982 39.0797,20.4102" id="Fill-32" fill="#FFFFFF"></path>
            <path d="M33.691,12.8829 C33.691,12.8829 34.917,13.2229 37.222,14.2719 C39.526,15.3209 40.059,15.7489 40.221,15.8669 C40.383,15.9849 40.398,16.1769 40.383,16.4279 L40.242,20.0309 L39.097,20.0339 C38.894,20.0339 38.771,20.1969 38.743,20.3599 L38.343,24.0319 L31.968,23.9869 L30.224,22.5599 C30.224,22.5599 30.806,19.9519 31.725,17.3619 C32.644,14.7719 33.691,12.8829 33.691,12.8829" id="Fill-34" fill="#00953F"></path>
            <path d="M57.5323,21.4059 C58.1823,21.6299 58.6683,22.0729 58.8533,22.7449 C58.9273,23.0159 58.9563,23.3799 58.9013,23.6589 C58.8153,24.0949 58.7193,24.5449 58.6083,24.9739 C58.5203,25.3149 58.3813,25.6829 58.2623,26.0169 C58.1343,26.3809 58.0033,26.7439 57.8693,27.1059 L57.7813,27.3469 L39.9603,25.9979 L40.3993,16.5619 L40.7773,16.6239 C41.6643,16.7709 42.5563,16.9539 43.4353,17.1409 C45.5713,17.5929 47.6953,18.1199 49.7933,18.7209 C51.7253,19.2759 53.6513,19.8919 55.5333,20.5979 C56.1973,20.8479 56.8863,21.1109 57.5323,21.4059" id="Fill-36" fill="#FFFFFF"></path>
            <path d="M40.3155,25.6842 L40.7215,16.9592 C40.7215,16.9592 44.7425,17.6262 49.6995,19.0482 C54.6915,20.4792 57.4065,21.7222 57.4065,21.7222 C58.8385,22.2052 58.5675,23.5932 58.5675,23.5932 C58.5675,23.5932 58.3945,24.4392 58.2785,24.8892 C58.1745,25.2942 57.5505,26.9882 57.5505,26.9882 L40.3155,25.6842 Z" id="Fill-38" fill="#00953F"></path>
            <path d="M24.1353,30.1495 C24.5583,30.1345 24.9363,29.9495 25.2043,29.6615 C25.4733,29.3735 25.6323,28.9825 25.6173,28.5585 C25.6023,28.1355 25.4173,27.7575 25.1293,27.4895 C24.8413,27.2205 24.4503,27.0625 24.0263,27.0765 C23.6033,27.0915 23.2253,27.2765 22.9573,27.5645 C22.6883,27.8525 22.5293,28.2435 22.5443,28.6675 C22.5593,29.0905 22.7443,29.4685 23.0323,29.7365 C23.3203,30.0055 23.7103,30.1645 24.1353,30.1495 M25.5233,29.9585 C25.1793,30.3275 24.6943,30.5655 24.1493,30.5845 C23.6043,30.6035 23.1043,30.3995 22.7353,30.0565 C22.3663,29.7125 22.1283,29.2265 22.1093,28.6815 C22.0903,28.1375 22.2933,27.6365 22.6373,27.2675 C22.9823,26.8985 23.4673,26.6605 24.0123,26.6415 C24.5563,26.6225 25.0573,26.8255 25.4263,27.1705 C25.7953,27.5145 26.0333,28.0005 26.0523,28.5455 C26.0713,29.0885 25.8673,29.5895 25.5233,29.9585" id="Fill-40" fill="#787A7C"></path>
            <path d="M27.2735,26.9083 L47.1505,27.7293 L46.7555,28.1373 C46.6065,28.2923 46.4835,28.4753 46.3975,28.6783 C46.3145,28.8743 46.2655,29.0873 46.2575,29.3113 C46.2495,29.5393 46.2855,29.7593 46.3565,29.9633 C46.4315,30.1753 46.5445,30.3683 46.6885,30.5343 L47.0535,30.9563 L26.6925,30.9563 L26.6925,30.4613 L26.7515,30.3903 C26.9645,30.1343 27.1315,29.8393 27.2405,29.5193 C27.3455,29.2103 27.3975,28.8763 27.3855,28.5313 C27.3775,28.3093 27.3445,28.0933 27.2865,27.8873 C27.2285,27.6743 27.1455,27.4733 27.0415,27.2853 L26.8205,26.8893 L27.2735,26.9083 Z" id="Fill-42" fill="#787A7C"></path>
            <path d="M48.5772,30.5069 C48.8842,30.4959 49.1582,30.3609 49.3522,30.1529 C49.5472,29.9439 49.6622,29.6609 49.6522,29.3529 C49.6412,29.0459 49.5062,28.7719 49.2982,28.5769 C49.0892,28.3819 48.8062,28.2669 48.4982,28.2779 C48.1912,28.2889 47.9172,28.4239 47.7222,28.6319 C47.5272,28.8409 47.4122,29.1239 47.4232,29.4319 C47.4332,29.7389 47.5682,30.0129 47.7772,30.2079 C47.9862,30.4029 48.2692,30.5179 48.5772,30.5069 M49.5842,30.3679 C49.3342,30.6359 48.9822,30.8089 48.5872,30.8229 C48.1922,30.8369 47.8292,30.6889 47.5612,30.4389 C47.2942,30.1899 47.1212,29.8379 47.1072,29.4419 C47.0942,29.0479 47.2412,28.6839 47.4912,28.4169 C47.7402,28.1489 48.0932,27.9759 48.4882,27.9629 C48.8822,27.9489 49.2452,28.0959 49.5132,28.3459 C49.7812,28.5959 49.9532,28.9479 49.9672,29.3429 C49.9812,29.7379 49.8332,30.1009 49.5842,30.3679" id="Fill-44" fill="#787A7C"></path>
            <g id="Group-48" transform="translate(0.000000, 21.635500)">
                <mask id="mask-4" fill="white">
                    <use xlink:href="#path-3"></use>
                </mask>
                <g id="Clip-47"></g>
                <path d="M34.8506,6.5936 L35.7216,6.3666 L38.4266,6.3666 L38.6986,6.4836 C38.7876,6.4416 38.8856,6.4186 38.9866,6.4186 C39.3566,6.4186 39.6566,6.7186 39.6566,7.0876 C39.6566,7.4206 39.4136,7.6976 39.0926,7.7486 L38.4956,8.0376 L36.6226,8.0376 L36.2546,8.1806 L35.8406,8.4646 L31.1786,8.4646 C30.6126,8.4576 29.9406,8.2016 29.4946,7.8676 L24.8226,4.5896 C24.0286,4.0496 22.8086,3.6026 21.8476,3.6026 L20.2726,3.5726 L20.2726,5.1966 L22.1436,5.1966 L23.8176,6.8036 L23.8176,9.5586 L22.3776,10.5046 L3.8826,10.5046 L3.8816,9.1026 L-0.0004,9.1026 L-0.0004,7.8666 L3.8816,7.8666 L3.8816,5.8766 L3.2616,5.8766 L3.2616,0.9426 C3.2616,0.4496 3.6586,0.0416 4.1536,0.0416 L14.5616,0.0416 L22.1446,0.6126 C22.6916,0.6456 23.3066,0.7636 23.8336,0.8996 C24.9256,1.1786 26.0366,1.6506 26.8846,2.4016 L31.0096,5.9916 C31.3746,6.3096 31.9866,6.6146 32.4876,6.5936 L32.4956,6.5936 L34.8506,6.5936 Z" id="Fill-46" fill="#FFFFFF" mask="url(#mask-4)"></path>
            </g>
            <path d="M4.1534,22.0177 L14.5494,22.0177 L22.1244,22.5877 C22.1244,22.5877 24.9264,22.7557 26.6614,24.2937 L30.7864,27.8837 C31.6244,28.6157 32.5054,28.5687 32.5054,28.5687 L34.8944,28.5687 L35.7654,28.3427 L38.3574,28.3427 L38.7204,28.4987 L38.7304,28.5177 C38.7914,28.4417 38.8824,28.3937 38.9864,28.3937 C39.1694,28.3937 39.3164,28.5417 39.3164,28.7237 C39.3164,28.9017 39.1744,29.0467 38.9984,29.0527 L38.4174,29.3327 L36.5594,29.3327 L36.0944,29.5137 L35.7354,29.7607 L31.1824,29.7607 C31.1824,29.7607 30.3874,29.7507 29.6954,29.2277 L25.0134,25.9437 C25.0134,25.9437 23.4794,24.8977 21.8544,24.8977 L19.9324,24.8607 L19.9324,27.1727 L22.0064,27.1727 L23.4774,28.5847 L23.4774,31.0107 L22.2754,31.8007 L4.2224,31.8007 L4.2224,30.3987 L0.3404,30.3987 L0.3404,29.8427 L4.2224,29.8427 L4.2224,27.1727 L3.6014,27.1727 L3.6014,22.5787 C3.6014,22.2697 3.8494,22.0177 4.1534,22.0177" id="Fill-49" fill="#787A7C"></path>
        </g>
    </g>
</svg>