<?xml version="1.0" encoding="UTF-8"?>
<svg width="130px" height="95px" viewBox="0 0 130 95" version="1.1" xmlns="http://www.w3.org/2000/svg" xmlns:xlink="http://www.w3.org/1999/xlink">
    <!-- Generator: Sketch 56.3 (81716) - https://sketch.com -->
    <title>brand-selector/wirtgen</title>
    <desc>Created with Sketch.</desc>
    <defs>
        <polygon id="path-1" points="0 39.9904803 114.319961 39.9904803 114.319961 0.000362204724 0 0.000362204724"></polygon>
    </defs>
    <g id="brand-selector/wirtgen" stroke="none" stroke-width="1" fill="none" fill-rule="evenodd">
        <g id="Group-24" transform="translate(14.000000, 50.000000)">
            <path d="M29.6747087,25.5649528 L29.6747087,20.5982205 L26.4909291,20.5982205 L25.9802205,25.5649528 L29.6747087,25.5649528 Z M35.2662441,25.5649528 L37.2701417,25.5649528 L38.1756535,17.2722756 L37.1225433,17.2722756 L37.1225433,17.7829843 L34.721126,18.2076693 L34.2086063,19.0063307 C34.0338425,19.2200315 34.2086063,19.6003465 34.5128583,19.5414882 L34.721126,19.5007402 L35.9001024,20.4198346 L35.2662441,25.5649528 Z" id="Fill-1" fill="#787A7C"></path>
            <mask id="mask-2" fill="white">
                <use xlink:href="#path-1"></use>
            </mask>
            <g id="Clip-4"></g>
            <polygon id="Fill-3" fill="#787A7C" mask="url(#mask-2)" points="49.0062992 35.018315 50.5746457 35.018315 50.5746457 30.4744567 49.0062992 30.4744567"></polygon>
            <path d="M45.0768307,39.4518819 L54.3121457,39.4518819 C54.8101772,39.4518819 55.2629331,39.2472362 55.5916339,38.9185354 C55.9203346,38.5907402 56.1240748,38.1370787 56.1240748,37.6390472 C56.1240748,37.1437323 55.9194291,36.6900709 55.5898228,36.3613701 C55.2602165,36.0317638 54.8074606,35.8262126 54.3121457,35.8262126 L45.0768307,35.8262126 C44.5787992,35.8262126 44.1260433,36.0308583 43.7973425,36.3595591 C43.4686417,36.6873543 43.2649016,37.1410157 43.2649016,37.6390472 C43.2649016,38.1343622 43.4704528,38.5880236 43.7991535,38.9167244 C44.1287598,39.2463307 44.5815157,39.4518819 45.0768307,39.4518819 M54.3121457,39.9906614 L45.0768307,39.9906614 C44.4330118,39.9906614 43.8444291,39.7253465 43.4179331,39.2979449 C42.991437,38.8714488 42.7252165,38.2837717 42.7252165,37.6390472 C42.7252165,36.9916063 42.9905315,36.4039291 43.416122,35.9783386 C43.8426181,35.5518425 44.4302953,35.2874331 45.0768307,35.2874331 L54.3121457,35.2874331 C54.9559646,35.2874331 55.5445472,35.552748 55.9710433,35.9801496 C56.3975394,36.4066457 56.6628543,36.9943228 56.6628543,37.6390472 C56.6628543,38.2864882 56.3984449,38.8741654 55.9728543,39.2997559 C55.5472638,39.726252 54.9586811,39.9906614 54.3121457,39.9906614" id="Fill-5" fill="#787A7C" mask="url(#mask-2)"></path>
            <path d="M45.0866102,36.4665 C45.7349567,36.4665 46.259248,36.9907913 46.259248,37.6391378 C46.259248,38.2874843 45.7349567,38.8117756 45.0866102,38.8117756 C44.4391693,38.8117756 43.9139724,38.2874843 43.9139724,37.6391378 C43.9139724,36.9907913 44.4391693,36.4665 45.0866102,36.4665" id="Fill-6" fill="#787A7C" mask="url(#mask-2)"></path>
            <polygon id="Fill-7" fill="#787A7C" mask="url(#mask-2)" points="55.0167244 38.512685 46.7810945 38.512685 46.4505827 36.6808346 55.0167244 36.6808346"></polygon>
            <polygon id="Fill-8" fill="#787A7C" mask="url(#mask-2)" points="10.5202362 35.018315 12.0885827 35.018315 12.0885827 30.4744567 10.5202362 30.4744567"></polygon>
            <path d="M6.59085827,39.4518819 L15.8261732,39.4518819 C16.3242047,39.4518819 16.7769606,39.2472362 17.1056614,38.9185354 C17.4343622,38.5907402 17.6381024,38.1370787 17.6381024,37.6390472 C17.6381024,37.1437323 17.4325512,36.6900709 17.1029449,36.3613701 C16.7742441,36.0317638 16.3214882,35.8262126 15.8261732,35.8262126 L6.59085827,35.8262126 C6.09282677,35.8262126 5.64007087,36.0308583 5.31137008,36.3595591 C4.98266929,36.6873543 4.77892913,37.1410157 4.77892913,37.6390472 C4.77892913,38.1343622 4.9835748,38.5880236 5.3131811,38.9167244 C5.6427874,39.2463307 6.09554331,39.4518819 6.59085827,39.4518819 M15.8261732,39.9906614 L6.59085827,39.9906614 C5.94703937,39.9906614 5.35845669,39.7253465 4.93196063,39.2979449 C4.50546457,38.8714488 4.23924409,38.2837717 4.23924409,37.6390472 C4.23924409,36.9916063 4.50365354,36.4039291 4.93014961,35.9783386 C5.35574016,35.5518425 5.94432283,35.2874331 6.59085827,35.2874331 L15.8261732,35.2874331 C16.4699921,35.2874331 17.0585748,35.552748 17.4841654,35.9801496 C17.9106614,36.4066457 18.1768819,36.9943228 18.1768819,37.6390472 C18.1768819,38.2864882 17.9124724,38.8741654 17.4868819,39.2997559 C17.0603858,39.726252 16.4727087,39.9906614 15.8261732,39.9906614" id="Fill-9" fill="#787A7C" mask="url(#mask-2)"></path>
            <path d="M6.60054724,36.4665 C7.24798819,36.4665 7.77318504,36.9907913 7.77318504,37.6391378 C7.77318504,38.2874843 7.24798819,38.8117756 6.60054724,38.8117756 C5.9531063,38.8117756 5.42790945,38.2874843 5.42790945,37.6391378 C5.42790945,36.9907913 5.9531063,36.4665 6.60054724,36.4665" id="Fill-10" fill="#787A7C" mask="url(#mask-2)"></path>
            <polygon id="Fill-11" fill="#787A7C" mask="url(#mask-2)" points="16.5306614 38.512685 8.2950315 38.512685 7.96451969 36.6808346 16.5306614 36.6808346"></polygon>
            <path d="M4.44597244,30.8477087 L26.452626,30.8477087 L26.452626,31.1863701 L33.9946339,31.1863701 L36.9312087,30.4746378 L51.8386496,30.4746378 L53.1453031,29.3481811 L53.4921142,28.2072362 L55.584752,27.2627874 L55.6771142,27.0083386 L57.0163661,26.1707402 C57.1014843,26.117315 57.1358937,26.0104646 57.0978622,25.9181024 L56.9176654,25.547748 L54.701878,26.6271181 L54.2753819,25.622 L56.4404606,24.5679843 L56.3707362,23.9078661 L52.6517992,20.7657402 L41.7095945,18.3054646 L38.9993976,26.8027874 C38.9776654,26.8679843 38.9179016,26.9123543 38.8499882,26.9123543 L36.9312087,26.9123543 L36.9312087,26.4143228 L24.6524685,26.4143228 L25.2184134,23.8182205 L23.3666417,23.8182205 C23.3666417,23.8182205 21.8372323,21.1967638 21.2703819,20.2251496 C20.7678228,19.3621969 20.4219173,19.1140866 19.4521142,18.9547165 C16.9773504,18.5472362 14.4564055,18.2221575 11.9707756,17.8626693 L6.63097244,17.8626693 L3.01979134,18.4693622 L3.01979134,27.8749134 L4.44597244,30.8477087 Z M57.116878,17.9495984 L41.5058543,16.7751496 L41.5049488,16.7751496 C41.3944764,16.7579449 41.289437,16.8312913 41.2649882,16.9399528 L41.213374,17.1708583 L41.213374,17.1681417 L41.2142795,17.1654252 L41.2142795,17.1654252 L41.215185,17.1627087 L41.2169961,17.1599921 L41.2169961,17.1590866 L41.2179016,17.1572756 L41.2179016,17.1563701 L41.2188071,17.1536535 L41.2197126,17.150937 L41.2206181,17.150937 L41.2215236,17.1482205 L41.2215236,17.147315 L41.2233346,17.1455039 L41.2233346,17.1445984 L41.2242402,17.1427874 L41.2251457,17.1427874 L41.2260512,17.1409764 L41.2260512,17.1391654 L41.2278622,17.1382598 L41.2278622,17.1373543 L41.2287677,17.1355433 L41.2296732,17.1346378 L41.2305787,17.1328268 L41.2314843,17.1328268 L41.2323898,17.1310157 L41.2332953,17.1301102 L41.2342008,17.1292047 L41.2351063,17.1273937 L41.2360118,17.1264882 L41.2369173,17.1255827 L41.2378228,17.1246772 L41.2387283,17.1228661 L41.2396339,17.1219606 L41.2405394,17.1210551 L41.2414449,17.1201496 L41.2432559,17.1183386 L41.2432559,17.1183386 L41.2450669,17.1165276 L41.2459724,17.115622 L41.246878,17.1147165 L41.2477835,17.113811 L41.2495945,17.112 L41.2505,17.112 L41.2514055,17.110189 L41.2514055,17.110189 L41.2532165,17.108378 L41.254122,17.108378 L41.2559331,17.1065669 L41.2586496,17.1047559 L41.2604606,17.1029449 L41.2613661,17.1029449 L41.2631772,17.1011339 L41.2686102,17.0975118 L41.2704213,17.0966063 L41.2731378,17.0947953 L41.2758543,17.0947953 L41.2758543,17.0947953 L41.2785709,17.0929843 L41.2785709,17.0929843 L41.2812874,17.0920787 L41.2812874,17.0920787 L41.2840039,17.0911732 L41.2840039,17.0902677 L41.2867205,17.0893622 L41.2867205,17.0893622 L41.289437,17.0884567 L41.289437,17.0884567 L41.291248,17.0875512 L41.2921535,17.0875512 L41.2939646,17.0866457 L41.2948701,17.0866457 L41.2966811,17.0857402 L41.2984921,17.0857402 L41.3003031,17.0848346 L41.3012087,17.0848346 L41.3030197,17.0839291 L41.3039252,17.0839291 L41.3057362,17.0839291 L41.3075472,17.0830236 L41.3084528,17.0830236 L41.3093583,17.0830236 L41.3111693,17.0830236 L41.3129803,17.0821181 L41.3138858,17.0821181 L41.3156969,17.0821181 L41.3175079,17.0812126 L41.3184134,17.0812126 L41.3202244,17.0812126 L41.3220354,17.0812126 L41.3229409,17.0812126 L41.324752,17.0812126 L41.3256575,17.0812126 L41.3274685,17.0812126 L41.328374,17.0812126 L41.3310906,17.0812126 L41.3319961,17.0812126 L41.3338071,17.0812126 L41.3347126,17.0812126 L41.3374291,17.0812126 L41.3374291,17.0812126 L41.3401457,17.0812126 L41.3410512,17.0812126 L41.3428622,17.0812126 L41.3437677,17.0812126 L41.3455787,17.0821181 L41.3464843,17.0821181 L41.3492008,17.0821181 L41.3528228,17.0830236 L41.3555394,17.0830236 L41.3591614,17.0839291 L53.9973898,19.9254252 L56.9973504,21.4457795 L60.451878,21.4457795 L60.451878,19.2671181 L61.9921535,18.3534567 L62.4240827,18.3534567 L62.4240827,17.9495984 L57.116878,17.9495984 Z" id="Fill-12" fill="#FCF8E2" mask="url(#mask-2)"></path>
            <path d="M29.0288071,31.3022756 L31.2617992,31.3022756 L31.2636102,31.0514488 C31.2636102,30.9418819 31.2989252,30.874874 31.3713661,30.8477087 C31.4438071,30.8214488 32.7622323,30.3379055 32.7622323,30.3379055 C32.8428228,30.298063 32.8871929,30.2437323 32.8871929,30.1749134 L32.8871929,27.7499528 C32.8871929,27.6802283 32.8319567,27.6240866 32.7622323,27.6240866 L29.0288071,27.6240866 C28.9590827,27.6240866 28.9029409,27.6802283 28.9029409,27.7499528 L28.9029409,31.1764094 C28.9029409,31.2461339 28.9590827,31.3022756 29.0288071,31.3022756" id="Fill-13" fill="#787A7C" mask="url(#mask-2)"></path>
            <path d="M39.9979055,36.6964094 C39.8530236,36.6040472 39.6945591,36.6112913 39.5705039,36.6955039 L37.3067244,38.2212913 L37.3067244,38.2221969 C37.2967638,38.2113307 37.2877087,38.1986535 37.2795591,38.1841654 C37.2596378,38.1488504 37.1926299,38.0211732 37.1174724,37.8762913 L48.542315,30.4746378 L35.2928661,30.4746378 L35.6188504,29.303811 C35.628811,29.2694016 35.6505433,29.2404252 35.6813307,29.2205039 C35.8416063,29.1227087 36.355937,28.806685 36.3876299,28.7867638 C36.4247559,28.762315 36.4537323,28.7514488 36.4926693,28.7514488 L36.8603071,28.7514488 C36.9571969,28.7514488 37.0359764,28.6726693 37.0359764,28.574874 C37.0359764,28.4779843 36.9571969,28.3992047 36.8603071,28.3992047 L35.6279055,28.3992047 C35.513811,28.3992047 35.3788898,28.4481024 35.3788898,28.4481024 C35.3788898,28.4481024 34.8002677,28.7722756 34.5892835,28.9026693 C34.3782992,29.0321575 34.1510157,29.3997953 34.1510157,29.3997953 L33.017315,31.1854646 L31.2271181,31.1854646 L27.1785748,31.1854646 L27.1785748,30.8477087 L19.447315,30.8477087 L22.745189,33.3025512 L22.745189,37.927 L22.6990079,38.4051102 C22.5975906,38.4186929 22.5160945,38.4902283 22.4853071,38.5853071 C22.4853071,38.5853071 22.3766457,38.9565669 22.325937,39.1295197 C22.2761339,39.3015669 22.1339685,39.3305433 22.0633386,39.2753071 C22.0271181,39.2472362 21.6703465,38.9085748 21.6703465,38.9085748 C21.6413701,38.8814094 21.6024331,38.8642047 21.559874,38.8642047 C21.4711339,38.8642047 21.3977874,38.9366457 21.3977874,39.0253858 C21.3977874,39.0715669 21.4177087,39.112315 21.4484961,39.1412913 C21.4484961,39.1412913 21.8514488,39.5044016 21.9094016,39.5532992 C21.9673543,39.6040079 22.0669606,39.6529055 22.2308583,39.6529055 L38.4920394,39.650189 C38.6115669,39.650189 38.7211339,39.5858976 38.7799921,39.4826693 L40.0504252,37.2496772 C40.1817244,37.0187717 40.1962126,36.8249921 39.9979055,36.6964094" id="Fill-14" fill="#787A7C" mask="url(#mask-2)"></path>
            <path d="M2.43944882,19.3475276 L21.890748,19.3475276 L21.890748,18.8902441 L2.43944882,18.8902441 L2.43944882,19.3475276 Z M2.43944882,20.7311496 L21.890748,20.7311496 L21.890748,19.6563071 L2.43944882,19.6563071 L2.43944882,20.7311496 Z" id="Fill-15" fill="#E84C0A" mask="url(#mask-2)"></path>
            <path d="M41.8235079,18.7090512 L56.9980748,22.146374 L56.8966575,22.5918858 L41.6840591,19.1455079 L41.8235079,18.7090512 Z M41.5898858,19.4416102 L56.8287441,22.8925157 L56.5915,23.9410984 L41.2620906,20.4684606 L41.5898858,19.4416102 Z" id="Fill-16" fill="#E84C0A" mask="url(#mask-2)"></path>
            <path d="M86.2183976,8.16653937 C86.3985945,8.03433465 86.5733583,7.88673622 86.7553661,7.75543701 C86.9735945,7.59697244 87.4788701,7.20398031 87.7514291,7.40862598 L88.313752,7.82968898 L91.2421772,6.02772047 L95.8566654,3.74945276 L101.850248,1.29370472 C101.907295,1.00394094 102.018673,0.777562992 102.285799,0.593744094 C102.669736,0.329334646 103.292728,0.222484252 103.752728,0.171775591 C104.747886,0.0631141732 105.743949,0.00244488189 106.74635,-0.000363322187 C107.986902,-0.00298818898 109.249185,0.0549645669 110.487925,0.134649606 C110.582098,0.140988189 110.675366,0.154570866 110.765917,0.178114173 C111.580878,0.381854331 112.395839,0.584688976 113.209894,0.790240157 C113.76135,0.929688976 114.324579,1.28102756 114.320078,1.91941339 C114.317335,2.45094882 114.213201,2.83579134 113.783988,3.18079134 C113.444421,3.45425591 113.10576,3.72772047 112.767098,4.00027953 C112.667492,4.08177559 112.569697,4.16417717 112.464657,4.23842913 C112.35328,4.31720866 112.175799,4.38240551 112.041783,4.42224803 L98.6501693,9.67331102 L94.5762717,11.8139409 L84.2670197,18.1588622 L84.4454055,18.4477205 L64.7731614,30.5571299 L64.5947756,30.2673661 L61.446311,32.2051614 L61.1764685,31.7677992 L59.7475709,32.6470512 L59.569185,32.3572874 L59.0756811,32.6615394 L58.1638307,31.1792165 L58.1511535,30.2909094 L58.2570984,30.2248071 L57.7545394,29.4089409 L57.8414685,29.0865787 L56.846311,28.5061457 L57.078122,27.7690591 L56.347374,27.1198071 L56.5438701,26.9468543 C56.9640276,26.5755945 57.4466654,25.8665787 57.2501693,25.2779961 L56.2414291,24.9474843 L56.1499724,24.0238622 L52.5460354,20.978626 L41.8655236,18.5772087 L41.8265866,18.6985472 L40.7245787,18.2910669 L40.9853661,17.1265787 C41.0288307,16.9364213 41.2189882,16.8159882 41.4091457,16.8585472 L54.0754449,19.7063819 L57.0527677,21.2149646 L62.1408386,21.2149646 L62.1408386,17.4480354 L63.3524134,17.4480354 L64.2986732,18.4703583 C64.4444606,18.0800827 64.6454843,17.5820512 64.818437,17.374689 C65.0629252,17.0822087 65.3988701,16.9373268 65.7710354,16.914689 L73.0911929,14.1365787 L73.137374,14.2579173 L73.7485945,14.0261063 L73.7757598,14.0976417 L83.0835157,10.5643346 L83.0572559,10.4946102 L84.0062323,10.1360276 C84.0859173,10.0472874 84.1891457,9.97756299 84.2959961,9.92685433 L83.4031614,9.41342913 C83.1957992,9.29390157 83.0554449,9.05665748 83.0554449,8.81760236 C83.0554449,8.43094882 83.3696575,8.11673622 83.7617441,8.11673622 L86.2183976,8.16653937 Z M68.8896181,16.8739409 L65.549185,18.142563 C65.5482795,18.1489016 65.547374,18.1570512 65.547374,18.1661063 L65.547374,20.0323661 L65.701311,20.1863031 L65.701311,20.9605157 L65.701311,21.2249252 L65.701311,21.7003189 L70.0640669,19.060752 L69.3143031,17.717878 L68.9729252,17.7495709 L68.8896181,16.8739409 Z M82.1607992,11.6183504 L74.0084764,14.7115787 L74.0356417,14.7831142 L73.4253268,15.0140197 L73.4706024,15.1353583 L72.675563,15.4377992 L76.5511535,15.0701614 L82.1607992,11.6183504 Z" id="Fill-17" fill="#FFFFFF" mask="url(#mask-2)"></path>
            <path d="M56.9970787,21.4459606 L53.9971181,19.9256063 L41.3588898,17.0841102 C41.2918819,17.0687165 41.2257795,17.1103701 41.2112913,17.1764724 L40.9939685,18.1444646 L41.6794409,18.3980079 L41.7093228,18.3056457 L52.6515276,20.7659213 L53.8775906,21.8018268 L53.876685,21.8018268 L56.3704646,23.9080472 L56.4564882,24.7755276 L57.4244803,25.0924567 C57.8817638,26.074937 56.6955433,27.1208031 56.6955433,27.1208031 L57.3438898,27.6958031 L57.1220394,28.3993858 L58.1108583,28.9752913 L58.0040079,29.372811 L58.5744803,30.3000551 L58.3843228,30.4177717 L58.393378,31.1122992 L59.1512913,32.3428898 L59.6447953,32.0395433 L59.8240866,32.3302126 L61.2529843,31.4500551 L61.5219213,31.8874173 L64.6703858,29.949622 L64.8487717,30.2393858 L84.1271181,18.3726535 L83.9487323,18.0828898 L94.4626299,11.6139134 L98.5546378,9.46332283 L111.966173,4.20411024 C111.966173,4.20411024 112.217906,4.12985827 112.331094,4.05017323 C112.404441,3.99765354 112.404441,3.99765354 112.621764,3.82198425 C112.787472,3.6879685 113.081764,3.44891339 113.639559,3.00159055 C114.011724,2.70096063 114.086882,2.3767874 114.089613,1.91859843 C114.09322,1.31643307 113.436724,1.08552756 113.153299,1.01399213 C112.903378,0.950606299 110.710228,0.402771654 110.710228,0.402771654 C110.632354,0.381944882 110.553575,0.37107874 110.47389,0.364740157 C109.963181,0.333047244 108.178417,0.227102362 106.746803,0.230633759 C105.292551,0.235251969 104.152512,0.36111811 103.77763,0.401866142 C103.359283,0.448047244 102.758929,0.548559055 102.417551,0.783992126 C102.165819,0.956944882 102.097906,1.17155118 102.057157,1.45859843 L95.9512913,3.95962205 L91.3540079,6.22974016 L88.300622,8.10867717 L87.6133386,7.59344094 C87.4349528,7.45851969 86.4832598,8.26351969 86.2912913,8.39934646 L83.7567638,8.34773228 C83.4977874,8.34773228 83.2858976,8.55871654 83.2858976,8.81769291 C83.2858976,8.98792913 83.3945591,9.14367717 83.5177087,9.21340157 L85.0643228,10.1017087 L84.9891654,10.1469843 C84.9085748,10.0419449 84.6867244,10.0229291 84.4603465,10.1080472 C84.3199921,10.1614724 84.2077087,10.243874 84.1443228,10.3298976 L83.3547165,10.629622 L83.3818819,10.6993465 L73.6412913,14.3956457 L73.614126,14.3241102 L73.003811,14.5559213 L72.9576299,14.4345827 L65.8194803,17.1429685 C65.606685,17.1511181 65.258063,17.2081654 64.9963701,17.522378 C64.8469606,17.6998583 64.6042835,18.3056457 64.3860551,18.904189 L63.2505433,17.6790315 L62.3712913,17.6790315 L62.3712913,21.4459606 L56.9970787,21.4459606 Z M69.090189,16.5507638 L69.1807402,17.4979291 L69.4424331,17.4725748 L70.3742047,19.1432441 L65.4708583,22.1106063 L65.4699528,21.2250157 L65.4708583,21.2250157 L65.4708583,20.9597008 L65.4708583,20.282378 L65.3169213,20.1275354 L65.3169213,18.1661969 C65.3169213,18.0801732 65.3449921,18.0104488 65.3893622,17.9561181 L69.090189,16.5507638 Z M83.4507008,10.8804488 L83.4787717,10.9528898 L84.006685,10.7518661 L76.6258583,15.2948189 L70.9917638,15.8299764 L73.1731417,15.0023386 L73.1269606,14.8800945 L73.7372756,14.6482835 L73.7110157,14.576748 L83.4507008,10.8804488 Z" id="Fill-18" fill="#787A7C" mask="url(#mask-2)"></path>
            <path d="M40.310126,9.75915354 L25.5692992,9.75915354 C25.4950472,9.75915354 25.4289449,9.80714567 25.4054016,9.87687008 L25.2704803,10.2825394 L25.2750079,10.2825394 L25.2704803,10.2825394 C25.2704803,10.2825394 25.2578031,10.370374 25.4370945,10.3893898 L26.0963071,10.4609252 L25.2442205,18.1994291 L24.974378,18.1994291 L24.1920157,25.3339567 L24.6465827,25.7876181 L24.3857953,28.0903346 L25.9025276,26.6433268 L25.9269764,26.4151378 L31.4967795,26.4151378 C31.5031181,26.932185 31.9241811,27.349626 32.4430394,27.349626 L36.2117795,27.349626 L36.2117795,26.9122638 L38.8504409,26.9122638 C38.9183543,26.9122638 38.9781181,26.8687992 38.9989449,26.8026969 L41.7091417,18.305374 L41.1069764,18.1695472 L41.1069764,17.6434449 L39.8356378,17.3573031 C39.5676063,17.2966339 39.2696929,17.4532874 39.2244173,17.7195079 L39.9624094,10.6284449 L39.6762677,10.6284449 L38.8368583,18.9374213 L38.2120551,25.1102953 C38.1885118,25.3475394 37.9911102,25.5259252 37.7529606,25.5259252 L26.0184331,25.5259252 L27.5641417,10.6193898 L29.0229213,10.7769488 C29.0582362,10.7805709 29.0926457,10.7724213 29.1225276,10.7552165 L29.3172126,10.6058071 L29.3307953,10.6284449 L41.1486299,10.6284449 C41.2129213,10.6284449 41.2744961,10.5994685 41.3152441,10.5496654 L41.534378,10.2825394 L41.5262283,10.2825394 L41.534378,10.2825394 L40.5745354,9.81982283 C40.4921339,9.77998031 40.4015827,9.75915354 40.310126,9.75915354" id="Fill-19" fill="#787A7C" mask="url(#mask-2)"></path>
            <path d="M11.9540236,18.0935748 L6.64953543,18.0935748 L3.25114961,18.6649528 L3.25114961,27.8223937 L4.68638583,30.8142047 L4.26441732,33.3097953 L1.03988976,33.3097953 L1.03988976,24.0808189 C1.03988976,24.0654252 1.03445669,24.049126 1.02630709,24.0355433 L0.0764251969,22.6084567 C0.0121338583,22.5124724 -0.0132204724,22.3947559 0.0067007874,22.2806614 L0.63784252,18.5925118 C0.65323622,18.5055827 0.68311811,18.4222756 0.728393701,18.3462126 L1.2572126,17.4524724 C1.30611024,17.3691654 1.38941732,17.3130236 1.48540157,17.2976299 L6.84150394,16.4699921 L22.6562677,16.4699921 L25.1572913,18.6622362 L24.5650866,24.049126 L23.2339843,24.049126 L23.1669764,23.934126 C22.4688268,22.7361339 21.7688661,21.5390472 21.0707165,20.3401496 C20.5998504,19.5333386 20.3091811,19.3295984 19.4145354,19.182 C18.1830394,18.9800709 16.929811,18.8152677 15.6937874,18.6359764 C14.4468976,18.4539685 13.2000079,18.2728661 11.9540236,18.0935748" id="Fill-20" fill="#FFFFFF" mask="url(#mask-2)"></path>
            <path d="M24.9141614,18.7568622 L22.5688858,16.7004449 L6.85916142,16.7004449 L1.52116929,17.5271772 C1.49400394,17.5307992 1.46955512,17.5461929 1.45597244,17.5697362 L0.926248031,18.4643819 C0.896366142,18.5150906 0.87553937,18.5721378 0.86557874,18.6309961 L0.234437008,22.3200512 C0.224476378,22.3761929 0.237153543,22.4341457 0.267940945,22.4812323 L1.21872835,23.9074134 C1.2531378,23.9590276 1.27124803,24.0196969 1.27124803,24.0812717 L1.27124803,33.078437 L4.06837402,33.078437 L4.44597244,30.8481614 L3.01979134,27.8744606 L3.01979134,25.5364291 L3.01979134,18.469815 L6.63097244,17.863122 L11.9707756,17.863122 C11.9707756,17.863122 18.9350669,18.8691457 19.4521142,18.9551693 C20.2897126,19.0919016 20.7035315,19.2521772 21.2703819,20.2246969 C21.8372323,21.196311 23.3666417,23.8186732 23.3666417,23.8186732 L24.1354213,23.8186732 L24.3581772,23.8186732 L24.9141614,18.7568622 Z" id="Fill-21" fill="#787A7C" mask="url(#mask-2)"></path>
            <polygon id="Fill-22" fill="#787A7C" mask="url(#mask-2)" points="25.6087795 18.7670945 39.3236614 18.7670945 39.3236614 18.2274094 25.6087795 18.2274094"></polygon>
            <polygon id="Fill-23" fill="#787A7C" mask="url(#mask-2)" points="25.6087795 22.2496929 39.3236614 22.2496929 39.3236614 21.7100079 25.6087795 21.7100079"></polygon>
        </g>
    </g>
</svg>