<svg id="Ebene_1" data-name="Ebene 1" xmlns="http://www.w3.org/2000/svg" viewBox="0 0 480.18898 90.70866"><defs><style>.cls-1{fill:#485358;}</style></defs><title>Zeichenfläche 4</title><path class="cls-1" d="M183.45045,72.78668H170.306l-10.8897-37.2676h-.2334l-10.8994,37.2676h-13.2295l-13.3867-55.0859H134.764l7.9189,34.4101,9.8184-34.4101h13.8408l9.8809,34.4101,7.7265-34.4101H196.931Z"/><path class="cls-1" d="M203.29815,72.78668V17.70078h13.375v55.0859Z"/><path class="cls-1" d="M257.95825,72.78668l-11.9531-21.8603h-4.5254v21.8603h-12.999V17.70078h20.999a36.56665,36.56665,0,0,1,7.7461.8222,19.92689,19.92689,0,0,1,6.7637,2.7627,14.38594,14.38594,0,0,1,4.7841,5.1309,15.95956,15.95956,0,0,1,1.7959,7.9336,14.62387,14.62387,0,0,1-3.0351,9.4111,16.60843,16.60843,0,0,1-8.4014,5.4522l14.375,23.5732Zm-.5439-38.1982a5.53573,5.53573,0,0,0-.8155-3.1563,5.594,5.594,0,0,0-2.1093-1.8613,9.24642,9.24642,0,0,0-2.9014-.8965,21.76852,21.76852,0,0,0-3.083-.2324h-7.1201v12.8369h6.3447a21.16641,21.16641,0,0,0,3.3545-.2754,10.90954,10.90954,0,0,0,3.1328-.9687,5.64248,5.64248,0,0,0,3.1973-5.4463Z"/><path class="cls-1" d="M301.91435,29.06108v43.7256h-13.2832V29.06108h-15.5674V17.70078h44.4209v11.3603Z"/><path class="cls-1" d="M358.94855,72.98888a49.47817,49.47817,0,0,1-11.7842,1.3232,34.104,34.104,0,0,1-12.1758-2.1045,27.96223,27.96223,0,0,1-9.5723-5.9082,26.87617,26.87617,0,0,1-6.2617-9.1396,29.95655,29.95655,0,0,1-2.2685-11.8672,30.10988,30.10988,0,0,1,2.3085-11.9795,26.6321,26.6321,0,0,1,6.336-9.1416,28.0852,28.0852,0,0,1,9.4961-5.7969,33.33894,33.33894,0,0,1,11.7422-2.0225,35.98083,35.98083,0,0,1,12.1259,1.9815,25.01876,25.01876,0,0,1,9.1153,5.3271l-8.4082,9.5762a14.299,14.299,0,0,0-5.1328-3.6933,17.32006,17.32006,0,0,0-7.2305-1.4434,16.12267,16.12267,0,0,0-6.4639,1.2793,15.56813,15.56813,0,0,0-5.1328,3.583,16.25992,16.25992,0,0,0-3.3838,5.4473,19.22522,19.22522,0,0,0-1.2041,6.8828,21.39335,21.39335,0,0,0,1.0908,7.0039,14.86389,14.86389,0,0,0,3.2325,5.4844,14.68886,14.68886,0,0,0,5.2783,3.5771,18.96923,18.96923,0,0,0,7.2051,1.2832,26.67725,26.67725,0,0,0,4.4277-.3506,16.49233,16.49233,0,0,0,3.8936-1.1299V51.12848h-10.5049V40.38728h22.7177v29.1768A42.0623,42.0623,0,0,1,358.94855,72.98888Z"/><path class="cls-1" d="M379.592,72.91368V17.82578h37.0303v11.209h-24.2022v10.4228h22.8721v10.6572h-22.8721v11.4385h25.5879v11.3604Z"/><path class="cls-1" d="M462.25515,72.91368l-22.166-36.0264h-.2393l.3106,36.0264h-12.916V17.82578h15.1767l22.0957,35.9472h.2285l-.3086-35.9472h12.9141v55.0879Z"/><path class="cls-1" d="M85.87135,2.83508H9.33613a6.51761,6.51761,0,0,0-6.498,6.4961v72.0444a6.51672,6.51672,0,0,0,6.498,6.498H85.87135a6.515,6.515,0,0,0,6.4961-6.498V9.33118A6.51592,6.51592,0,0,0,85.87135,2.83508Zm1.5,76.9819a3.06753,3.06753,0,0,1-3.0547,3.0586H10.89283a3.06834,3.06834,0,0,1-3.0586-3.0586V10.88968a3.06826,3.06826,0,0,1,3.0586-3.0585H84.31665a3.06744,3.06744,0,0,1,3.0547,3.0585Z"/><path class="cls-1" d="M81.13405,12.44928H14.07743a1.53629,1.53629,0,0,0-1.5313,1.5313v62.7505a1.53717,1.53717,0,0,0,1.5313,1.5293H81.13405a1.53469,1.53469,0,0,0,1.5254-1.5293V13.98058A1.53381,1.53381,0,0,0,81.13405,12.44928Zm-3.8027,59.3618a1.15165,1.15165,0,0,1-1.1485,1.1485H19.03833a1.15117,1.15117,0,0,1-1.1465-1.1485V18.94148a1.149,1.149,0,0,1,1.1465-1.1445H76.18285a1.14952,1.14952,0,0,1,1.1485,1.1445Z"/><polygon class="cls-1" points="43.188 35.423 37.522 44.97 30.719 28.724 22.18 28.724 36.069 61.987 43.211 61.987 46.782 35.423 43.188 35.423"/><polygon class="cls-1" points="52.018 35.423 57.686 44.97 64.487 28.724 73.026 28.724 59.139 61.987 51.994 61.987 48.426 35.423 52.018 35.423"/></svg>